#N canvas 401 126 450 300 10;
#X obj 62 94 osc~ \$1;
#X obj 61 166 lop~ \$2;
#X obj 62 52 route freq filter amp;
#X obj 61 194 *~ \$3;
#X obj 62 24 inlet;
#X obj 61 221 outlet~;
#X obj 61 116 *~ 1e+006;
#X obj 61 143 clip~ -1 1;
#X obj 222 18 loadbang;
#X obj 222 53 \$3;
#X obj 222 77 expr -$f1 \; $f1;
#X connect 0 0 6 0;
#X connect 1 0 3 0;
#X connect 2 0 0 0;
#X connect 2 1 1 1;
#X connect 2 2 3 1;
#X connect 3 0 5 0;
#X connect 4 0 2 0;
#X connect 6 0 7 0;
#X connect 7 0 1 0;
#X connect 8 0 9 0;
#X connect 9 0 10 0;
#X connect 10 0 7 1;
#X connect 10 1 7 2;
