#N canvas 725 199 450 300 10;
#X obj 23 175 +~;
#X obj 24 121 osc~ \$1;
#X obj 75 121 osc~ \$2;
#X obj 23 200 *~ \$3;
#X obj 23 227 outlet~;
#X obj 23 65 inlet;
#X obj 23 147 *~ \$4;
#X obj 74 146 *~ \$5;
#X obj 23 97 route car mod amp carIndex modIndex;
#X floatatom 175 140 5 0 0 0 - - -;
#X connect 0 0 3 0;
#X connect 1 0 6 0;
#X connect 2 0 7 0;
#X connect 3 0 4 0;
#X connect 5 0 8 0;
#X connect 6 0 0 0;
#X connect 7 0 0 1;
#X connect 8 0 1 0;
#X connect 8 1 2 0;
#X connect 8 2 3 1;
#X connect 8 3 6 1;
#X connect 8 3 9 0;
#X connect 8 4 7 1;
