#N canvas 0 0 488 379 10;
#X obj 23 16 inlet a;
#X obj 100 14 inlet n;
#X obj 23 120 /~;
#X obj 39 96 *~ 2;
#X obj 115 93 *~ 2;
#X obj 115 118 +~ 1;
#X obj 114 151 *~;
#X obj 114 176 *~ 0.5;
#X obj 176 176 *~ 0.5;
#X obj 114 238 /~;
#X obj 113 266 -~ 1;
#X obj 24 273 *~;
#X obj 23 329 outlet~;
#X obj 175 201 sin~;
#X obj 114 203 sin~;
#X obj 177 120 phasor~ \$1;
#X obj 23 49 sig~ \$2;
#X obj 100 49 sig~ \$3;
#X obj 24 298 hip~ 1;
#X connect 0 0 16 0;
#X connect 1 0 17 0;
#X connect 2 0 11 0;
#X connect 3 0 2 1;
#X connect 4 0 5 0;
#X connect 5 0 6 0;
#X connect 6 0 7 0;
#X connect 7 0 14 0;
#X connect 8 0 13 0;
#X connect 9 0 10 0;
#X connect 10 0 11 1;
#X connect 11 0 18 0;
#X connect 13 0 9 1;
#X connect 14 0 9 0;
#X connect 15 0 6 1;
#X connect 15 0 8 0;
#X connect 16 0 2 0;
#X connect 17 0 3 0;
#X connect 17 0 4 0;
#X connect 18 0 12 0;
