#N canvas 507 30 537 555 10;
#X obj 27 89 sig~ \$1;
#X obj 27 61 inlet freq;
#X obj 288 53 inlet distance;
#X obj 405 55 inlet index;
#X obj 260 83 \$2;
#X obj 383 82 \$3;
#X obj 260 116 / 100;
#X obj 383 113 / 100;
#X obj 121 92 sig~;
#X obj 106 140 *~;
#X obj 28 178 phasor~;
#X obj 106 162 phasor~;
#X obj 92 213 -~;
#X obj 92 243 -~ 0.25;
#X obj 92 268 cos~;
#X obj 29 242 -~ 0.25;
#X obj 29 267 cos~;
#X obj 92 294 *~;
#X obj 29 329 -~;
#X obj 207 241 sig~;
#X obj 156 306 sig~ 1;
#X obj 206 313 *~;
#X obj 157 330 +~;
#X obj 296 242 cos~;
#X obj 158 370 -~;
#X obj 283 280 *~ 2;
#X obj 283 310 *~;
#X obj 30 402 /~;
#X obj 30 435 hip~ 1;
#X obj 31 468 *~ 0.25;
#X obj 30 492 outlet~;
#X connect 0 0 9 0;
#X connect 0 0 10 0;
#X connect 1 0 0 0;
#X connect 2 0 6 0;
#X connect 3 0 7 0;
#X connect 4 0 6 0;
#X connect 5 0 7 0;
#X connect 6 0 8 0;
#X connect 7 0 19 0;
#X connect 8 0 9 1;
#X connect 9 0 11 0;
#X connect 10 0 12 0;
#X connect 10 0 15 0;
#X connect 11 0 12 1;
#X connect 11 0 23 0;
#X connect 12 0 13 0;
#X connect 13 0 14 0;
#X connect 14 0 17 0;
#X connect 15 0 16 0;
#X connect 16 0 18 0;
#X connect 17 0 18 1;
#X connect 18 0 27 0;
#X connect 19 0 21 0;
#X connect 19 0 21 1;
#X connect 19 0 25 0;
#X connect 19 0 17 1;
#X connect 20 0 22 0;
#X connect 21 0 22 1;
#X connect 22 0 24 0;
#X connect 23 0 26 1;
#X connect 24 0 27 1;
#X connect 25 0 26 0;
#X connect 26 0 24 1;
#X connect 27 0 28 0;
#X connect 28 0 29 0;
#X connect 29 0 30 0;
