#N canvas 215 76 1104 686 10;
#X obj 74 -26 inlet~;
#X obj 43 368 outlet~;
#X obj 172 35 delwrite~ \$0-refl_2 1000;
#X obj 155 137 delread~ \$0-refl_2 1000;
#X obj 373 33 delwrite~ \$0-refl_3 1000;
#X obj 340 131 delread~ \$0-refl_3 1000;
#X obj 549 31 delwrite~ \$0-refl_4 1000;
#X obj 538 128 delread~ \$0-refl_4 1000;
#N canvas 488 75 732 416 init 0;
#X obj 196 14 loadbang;
#X floatatom 323 200 5 0 0 0 - - -;
#X obj 253 66 bng 15 250 50 0 empty empty empty 17 7 0 10 -262144 -1
-1;
#X floatatom 397 193 5 0 0 0 - - -;
#X floatatom 393 139 5 0 0 0 - - -;
#X obj 392 116 + 300;
#X obj 392 93 random 100;
#X floatatom 471 194 5 0 0 0 - - -;
#X floatatom 467 140 5 0 0 0 - - -;
#X obj 466 94 random 100;
#X obj 270 233 *;
#X floatatom 234 296 5 0 0 0 - - -;
#X obj 317 95 random 100;
#X obj 317 117 + 200;
#X obj 317 141 / 1000;
#X obj 234 266 +;
#X floatatom 74 56 5 0 0 0 - - -;
#X obj 178 96 t f b;
#X msg 204 50 1000;
#X obj 391 235 *;
#X floatatom 355 298 5 0 0 0 - - -;
#X obj 355 268 +;
#X obj 462 226 *;
#X floatatom 459 298 5 0 0 0 - - -;
#X obj 463 261 +;
#X obj 466 117 + 500;
#X obj 392 161 / 1000;
#X obj 466 162 / 1000;
#X floatatom 547 191 5 0 0 0 - - -;
#X floatatom 543 137 5 0 0 0 - - -;
#X obj 542 91 random 100;
#X floatatom 563 300 5 0 0 0 - - -;
#X obj 563 268 +;
#X obj 542 114 + 500;
#X obj 542 159 / 1000;
#X obj 361 51 unpack f f f f;
#X obj 229 387 outlet;
#X obj 317 385 outlet;
#X obj 406 399 outlet;
#X obj 494 397 outlet;
#X obj 45 16 receive time;
#X obj 532 30 receive listas;
#X msg 311 23 200 300 500 700;
#X obj 551 228 *;
#X connect 0 0 18 0;
#X connect 0 0 42 0;
#X connect 1 0 10 1;
#X connect 2 0 9 0;
#X connect 2 0 6 0;
#X connect 2 0 30 0;
#X connect 2 0 12 0;
#X connect 3 0 19 1;
#X connect 4 0 26 0;
#X connect 5 0 4 0;
#X connect 6 0 5 0;
#X connect 7 0 22 1;
#X connect 8 0 27 0;
#X connect 9 0 25 0;
#X connect 10 0 15 1;
#X connect 11 0 36 0;
#X connect 12 0 13 0;
#X connect 13 0 14 0;
#X connect 14 0 1 0;
#X connect 15 0 11 0;
#X connect 16 0 17 0;
#X connect 17 0 15 0;
#X connect 17 0 10 0;
#X connect 17 0 21 0;
#X connect 17 0 19 0;
#X connect 17 0 24 0;
#X connect 17 0 22 0;
#X connect 17 0 32 0;
#X connect 17 0 43 0;
#X connect 17 1 2 0;
#X connect 18 0 17 0;
#X connect 19 0 21 1;
#X connect 20 0 37 0;
#X connect 21 0 20 0;
#X connect 22 0 24 1;
#X connect 23 0 38 0;
#X connect 24 0 23 0;
#X connect 25 0 8 0;
#X connect 26 0 3 0;
#X connect 27 0 7 0;
#X connect 28 0 43 1;
#X connect 29 0 34 0;
#X connect 30 0 33 0;
#X connect 31 0 39 0;
#X connect 32 0 31 0;
#X connect 33 0 29 0;
#X connect 34 0 28 0;
#X connect 35 0 13 1;
#X connect 35 1 5 1;
#X connect 35 2 25 1;
#X connect 35 3 33 1;
#X connect 40 0 17 0;
#X connect 41 0 35 0;
#X connect 42 0 35 0;
#X connect 43 0 32 1;
#X restore 246 -34 pd init --------;
#X obj 208 92 *~;
#X obj 538 90 *~;
#X obj 11 34 delwrite~ \$0-refl_1 1000;
#X obj 43 249 hip~ 100;
#X obj 42 304 lop~ 16000;
#X obj 321 418 hsl 128 15 0 1 0 0 empty empty empty -2 -8 0 10 -262144
-1 -1 4300 1;
#X text 458 413 1;
#X obj 321 437 hsl 128 15 0 1 0 0 empty empty empty -2 -8 0 10 -262144
-1 -1 7800 1;
#X text 458 432 2;
#X obj 321 456 hsl 128 15 0 1 0 0 empty empty empty -2 -8 0 10 -262144
-1 -1 3200 1;
#X obj 321 475 hsl 128 15 0 1 0 0 empty empty empty -2 -8 0 10 -262144
-1 -1 4200 1;
#X text 458 451 3;
#X text 458 470 4;
#X obj 102 202 expr~ ($v1*$f5) + ($v2*$f6) + ($v3*$f7) + ($v4*$f8)
;
#X text 316 396 Saidas de delay (mixer);
#X obj 222 335 pvu~;
#X obj 480 374 vu 15 120 empty empty -1 -8 0 10 -66577 -1 1 0;
#X obj 74 9 *~;
#X obj 317 335 knob 32 32 0 1 0 0 empty empty Input 0 -8 0 8 -262144
-1 -1 781 1;
#X obj 372 333 knob 32 32 0 1 0 0 empty empty Feedback_1 0 -8 0 8 -262144
-1 -1 1757 1;
#X obj 434 333 knob 32 32 0 1 0 0 empty empty Feedback_2 0 -8 0 8 -262144
-1 -1 1440 1;
#X obj 509 332 knob 32 32 0 500 0 0 empty empty HIP 0 -8 0 8 -262144
-1 -1 1489 1;
#X obj 558 331 knob 32 32 800 16000 0 0 empty empty LOP 0 -8 0 8 -262144
-1 -1 1439 1;
#N canvas 0 22 450 300 (subpatch) 0;
#X array \$0-out 100 float 3;
#A 0 0 0 0 0 0 0 0 0 0 0 0 0 0 0 0 0 0 0 0 0 0 0 0 0 0 0 0 0 0 0 0
0 0 0 0 0 0 0 0 0 0 0 0 0 0 0 0 0 0 0 0 0 0 0 0 0 0 0 0 0 0 0 0 0 0
0 0 0 0 0 0 0 0 0 0 0 0 0 0 0 0 0 0 0 0 0 0 0 0 0 0 0 0 0 0 0 0 0 0
0;
#X coords 0 1 99 -1 150 100 1 0 0;
#X restore 529 391 graph;
#X obj 139 388 tabwrite~ \$0-out;
#X obj 158 349 metro 100;
#X obj 171 290 loadbang;
#X obj 9 137 delread~ \$0-refl_1 1000;
#X obj 607 331 knob 32 32 0.1 3000 0 0 empty empty time 0 -8 0 8 -262144
-1 -1 294 1;
#X obj 606 531 send time;
#X obj 693 429 vradio 15 1 0 4 empty empty empty 0 -8 0 10 -262144
-1 -1 1;
#X obj 806 343 sel 0 1 2 3;
#X msg 805 377 100 200 300 500;
#X msg 805 421 200 300 500 800;
#X msg 808 456 600 900 1500 2400;
#X msg 811 496 300 600 900 1500;
#X obj 878 531 send listas;
#X obj 725 155 + 1;
#X obj 733 62 bng 15 250 50 0 empty empty empty 17 7 0 10 -262144 -1
-1;
#X obj 721 90 metro 50;
#X obj 724 118 random 1000;
#X obj 691 345 knob 32 32 1 300 0 0 empty empty iteracao 0 -8 0 8 -262144
-1 -1 1067 1;
#X obj 744 345 knob 32 32 10 3000 0 0 empty empty tempo 0 -8 0 8 -262144
-1 -1 1361 1;
#X obj 691 309 tgl 15 0 empty empty empty 17 7 0 10 -262144 -1 -1 1
1;
#X text 713 426 Preset 1;
#X text 713 442 Preset 2;
#X text 713 459 Preset 3;
#X text 713 474 Preset 4;
#X text 709 306 Automatiza time;
#X obj 35 509 KONTROL 14;
#X obj 103 509 KONTROL 15;
#X obj 171 509 KONTROL 16;
#X obj 239 509 KONTROL 17;
#X floatatom 317 377 5 0 0 0 - - -;
#X floatatom 372 378 5 0 0 0 - - -;
#X floatatom 434 377 5 0 0 0 - - -;
#X obj 239 532 * 500;
#X floatatom 509 304 5 0 0 0 - - -;
#X floatatom 556 303 5 0 0 0 - - -;
#X obj 308 531 * 16000;
#X obj 306 554 + 800;
#X obj 308 509 KONTROL 18;
#X obj 32 574 KONTROL 2;
#X obj 100 574 KONTROL 3;
#X obj 168 574 KONTROL 4;
#X obj 235 574 KONTROL 5;
#X obj 381 510 KONTROL 19;
#X obj 381 532 * 3000;
#X obj 452 511 KONTROL 20;
#X floatatom 607 303 10 0 0 0 - - -;
#X obj 452 533 * 300;
#X obj 522 510 KONTROL 21;
#X obj 522 532 * 3000;
#X obj 725 527 ctlin;
#X obj 693 588 spigot;
#X obj 740 590 spigot;
#X obj 784 587 spigot;
#X obj 831 587 spigot;
#X msg 692 613 0;
#X msg 741 616 1;
#X msg 787 614 2;
#X msg 836 617 3;
#X obj 739 560 sel 23 24 25 26 45;
#X obj 891 587 spigot;
#X connect 0 0 26 0;
#X connect 3 0 4 0;
#X connect 3 0 22 1;
#X connect 5 0 6 0;
#X connect 5 0 9 0;
#X connect 5 0 22 2;
#X connect 7 0 10 0;
#X connect 7 0 22 3;
#X connect 8 0 36 0;
#X connect 8 1 3 0;
#X connect 8 2 5 0;
#X connect 8 3 7 0;
#X connect 9 0 2 0;
#X connect 10 0 11 0;
#X connect 12 0 13 0;
#X connect 13 0 1 0;
#X connect 13 0 24 0;
#X connect 13 0 33 0;
#X connect 14 0 22 4;
#X connect 16 0 22 5;
#X connect 18 0 22 6;
#X connect 19 0 22 7;
#X connect 22 0 12 0;
#X connect 24 0 25 0;
#X connect 24 1 25 1;
#X connect 26 0 11 0;
#X connect 27 0 26 1;
#X connect 27 0 62 0;
#X connect 28 0 9 1;
#X connect 28 0 63 0;
#X connect 29 0 10 1;
#X connect 29 0 64 0;
#X connect 30 0 12 1;
#X connect 30 0 66 0;
#X connect 31 0 13 1;
#X connect 31 0 67 0;
#X connect 34 0 33 0;
#X connect 35 0 34 0;
#X connect 36 0 2 0;
#X connect 36 0 22 0;
#X connect 37 0 38 0;
#X connect 37 0 78 0;
#X connect 39 0 40 0;
#X connect 40 0 41 0;
#X connect 40 1 42 0;
#X connect 40 2 43 0;
#X connect 40 3 44 0;
#X connect 41 0 45 0;
#X connect 42 0 45 0;
#X connect 43 0 45 0;
#X connect 44 0 45 0;
#X connect 46 0 37 0;
#X connect 47 0 48 0;
#X connect 48 0 49 0;
#X connect 49 0 46 0;
#X connect 50 0 48 1;
#X connect 51 0 49 1;
#X connect 52 0 48 0;
#X connect 58 0 27 0;
#X connect 59 0 28 0;
#X connect 60 0 29 0;
#X connect 61 0 65 0;
#X connect 65 0 30 0;
#X connect 68 0 69 0;
#X connect 69 0 31 0;
#X connect 70 0 68 0;
#X connect 71 0 14 0;
#X connect 72 0 16 0;
#X connect 73 0 18 0;
#X connect 74 0 19 0;
#X connect 75 0 76 0;
#X connect 76 0 37 0;
#X connect 77 0 79 0;
#X connect 79 0 50 0;
#X connect 80 0 81 0;
#X connect 81 0 51 0;
#X connect 82 0 83 1;
#X connect 82 0 84 1;
#X connect 82 0 85 1;
#X connect 82 0 86 1;
#X connect 82 0 92 1;
#X connect 82 1 91 0;
#X connect 83 0 87 0;
#X connect 84 0 88 0;
#X connect 85 0 89 0;
#X connect 86 0 90 0;
#X connect 87 0 39 0;
#X connect 88 0 39 0;
#X connect 89 0 39 0;
#X connect 90 0 39 0;
#X connect 91 0 83 0;
#X connect 91 1 84 0;
#X connect 91 2 85 0;
#X connect 91 3 86 0;
#X connect 91 4 92 0;
#X connect 92 0 52 0;
#X coords 0 -1 1 1 490 200 1 300 300;
