#N canvas 661 217 574 377 10;
#X obj 32 305 dac~;
#X obj 16 87 env.maker 1000;
#X obj 16 55 ./additive_synthesis/discrete.additive 440 100 40 25;
#X floatatom 15 22 5 0 0 0 - - -;
#X floatatom 92 18 5 0 0 0 - - -;
#X floatatom 172 18 5 0 0 0 - - -;
#X floatatom 371 59 5 0 0 0 - - -;
#X obj 350 193 *~;
#X obj 396 111 bng 15 250 50 0 empty empty empty 17 7 0 10 -262144
-1 -1;
#X obj 395 152 ead~ 30 800;
#X connect 1 0 0 0;
#X connect 2 0 7 0;
#X connect 3 0 2 0;
#X connect 4 0 2 1;
#X connect 5 0 2 2;
#X connect 7 0 0 1;
#X connect 8 0 9 0;
#X connect 9 0 7 1;
