#N canvas 354 360 450 300 10;
#X obj 26 64 spigot~;
#X obj 80 64 spigot~;
#X obj 155 87 expr $f1 \; 1-$f1;
#X obj 26 28 inlet~;
#X obj 82 28 inlet~;
#X obj 156 21 inlet;
#X obj 25 113 outlet~;
#X obj 205 22 loadbang;
#X obj 205 46 1;
#X connect 0 0 6 0;
#X connect 1 0 6 0;
#X connect 2 0 0 1;
#X connect 2 1 1 1;
#X connect 3 0 0 0;
#X connect 4 0 1 0;
#X connect 5 0 2 0;
#X connect 7 0 8 0;
#X connect 8 0 2 0;
