#N canvas 164 48 450 300 10;
#X obj 62 94 osc~ \$1;
#X obj 62 118 *~ 1e+006;
#X obj 62 143 clip~ 0 1;
#X obj 61 166 lop~ \$2;
#X obj 62 52 route freq filter amp;
#X obj 61 194 *~ \$3;
#X obj 62 24 inlet;
#X obj 61 221 outlet~;
#X connect 0 0 1 0;
#X connect 1 0 2 0;
#X connect 2 0 3 0;
#X connect 3 0 5 0;
#X connect 4 0 0 0;
#X connect 4 1 3 1;
#X connect 4 2 5 1;
#X connect 5 0 7 0;
#X connect 6 0 4 0;
