#N canvas 642 160 450 300 10;
#X obj 28 120 t b f b;
#X msg 124 147 0;
#X obj 28 77 \$1;
#X obj 28 99 / \$2;
#X obj 28 182 outlet;
#X obj 28 147 for++ 0 \$2 \$1;
#X obj 29 55 inlet bang;
#X connect 0 0 5 0;
#X connect 0 1 5 2;
#X connect 0 2 1 0;
#X connect 1 0 4 0;
#X connect 2 0 3 0;
#X connect 3 0 0 0;
#X connect 5 0 4 0;
#X connect 6 0 2 0;
