#N canvas -167 47 833 686 10;
#X obj 14 12 metro 3000;
#X obj 14 -7 tgl 15 0 empty empty empty 17 7 0 10 -262144 -1 -1 0 1
;
#X obj 11 616 dac~;
#X msg 14 32 \; msg snapshot;
#X obj 300 75 r msg;
#X obj 596 81 r msg;
#X obj 106 47 throw~ a;
#X obj 15 79 catch~ a;
#X obj 339 75 catch~ b;
#X obj 635 81 catch~ c;
#X obj 467 45 throw~ b;
#X obj 230 408 ../../mono.gram;
#X obj 15 334 +~;
#X obj 468 23 ../../modulation/am.singlebands.cheby.3 220 923 2 0.05
;
#X obj 105 24 ../../modulation/am.singlebands.cheby.3 110 123 30 1e-005
;
#X obj 15 102 ../../granular/aperiodic.gauss.grain 8192 1 10000 1;
#X obj 351 103 ../../granular/aperiodic.gauss.grain 8192 1 100 3;
#X obj 15 391 ../../env.maker 1e+006;
#X connect 0 0 3 0;
#X connect 1 0 0 0;
#X connect 4 0 15 1;
#X connect 5 0 16 1;
#X connect 7 0 15 0;
#X connect 8 0 16 0;
#X connect 12 0 17 0;
#X connect 13 0 10 0;
#X connect 14 0 6 0;
#X connect 15 0 12 0;
#X connect 16 0 12 1;
#X connect 17 0 2 0;
#X connect 17 0 2 1;
#X connect 17 0 11 0;
