#N canvas 195 22 833 686 10;
#X obj 14 12 metro 3000;
#X obj 14 -7 tgl 15 0 empty empty empty 17 7 0 10 -262144 -1 -1 1 1
;
#X obj 11 616 dac~;
#X msg 14 32 \; msg snapshot;
#X obj 300 75 r msg;
#X obj 596 81 r msg;
#X obj 106 47 throw~ a;
#X obj 15 79 catch~ a;
#X obj 339 75 catch~ b;
#X obj 635 81 catch~ c;
#X obj 467 45 throw~ b;
#X obj 230 408 ../../mono.gram;
#X obj 15 334 +~;
#X obj 468 23 ../../modulation/am.singlebands.cheby.3 220 923 2 0.05
;
#X obj 351 103 ../../granular/aperiodic.gauss.grain 8192 1 100 3;
#X obj 15 391 ../../env.maker 1e+06;
#N canvas 142 175 1138 427 reverb 1;
#X obj 23 26 inlet~;
#X obj 26 253 outlet~;
#X obj 22 62 delwrite~ _1 10;
#X obj 26 182 delread~ _1 10;
#X obj 128 63 delwrite~ _2 15;
#X obj 132 183 delread~ _2 15;
#X obj 233 63 delwrite~ _3 20;
#X obj 236 183 delread~ _3 20;
#X obj 339 64 delwrite~ _4 25;
#X obj 343 184 delread~ _4 25;
#X obj 444 66 delwrite~ _5 30;
#X obj 448 186 delread~ _5 30;
#X obj 550 67 delwrite~ _6 35;
#X obj 554 187 delread~ _6 35;
#X obj 655 67 delwrite~ _7 40;
#X obj 657 187 delread~ _7 40;
#X obj 761 68 delwrite~ _8 45;
#X obj 762 185 delread~ _8 45;
#X connect 0 0 2 0;
#X connect 3 0 1 0;
#X connect 3 0 4 0;
#X connect 5 0 1 0;
#X connect 5 0 6 0;
#X connect 7 0 1 0;
#X connect 7 0 8 0;
#X connect 9 0 1 0;
#X connect 9 0 10 0;
#X connect 11 0 1 0;
#X connect 11 0 12 0;
#X connect 13 0 1 0;
#X connect 13 0 14 0;
#X connect 15 0 1 0;
#X connect 15 0 16 0;
#X connect 17 0 1 0;
#X restore 99 341 pd reverb;
#X obj 105 24 ../../modulation/am.singlebands.cheby.3 220 123 10 0.0005
;
#X obj 15 102 ../../granular/aperiodic.gauss.grain 8192 1 100 1;
#X connect 0 0 3 0;
#X connect 1 0 0 0;
#X connect 4 0 18 1;
#X connect 5 0 14 1;
#X connect 7 0 18 0;
#X connect 8 0 14 0;
#X connect 12 0 16 0;
#X connect 13 0 10 0;
#X connect 14 0 12 1;
#X connect 15 0 2 0;
#X connect 15 0 2 1;
#X connect 15 0 11 0;
#X connect 16 0 15 0;
#X connect 17 0 6 0;
#X connect 18 0 12 0;
