#N canvas 195 22 868 752 10;
#X obj 14 12 metro 3000;
#X obj 14 -7 tgl 15 0 empty empty empty 17 7 0 10 -262144 -1 -1 1 1
;
#X obj 7 860 dac~;
#X msg 14 32 \; msg snapshot;
#X obj 300 75 r msg;
#X obj 596 81 r msg;
#X obj 106 47 throw~ a;
#X obj 15 79 catch~ a;
#X obj 339 75 catch~ b;
#X obj 635 81 catch~ c;
#X obj 467 45 throw~ b;
#X obj 226 652 ../../mono.gram;
#X obj 468 23 ../../modulation/am.singlebands.cheby.3 220 923 2 0.05
;
#X obj 351 103 ../../granular/aperiodic.gauss.grain 8192 1 100 3;
#X obj 105 24 ../../modulation/am.singlebands.cheby.3 220 123 10 0.0005
;
#X obj 15 102 ../../granular/aperiodic.gauss.grain 8192 1 100 1;
#X obj 15 334 *~;
#X obj 14 358 ./florest_ambient~;
#X obj 150 358 ./florest_ambient~;
#X obj 44 379 env~;
#X floatatom 44 406 5 0 0 0 - - -;
#X obj 145 384 env~;
#X floatatom 142 407 5 0 0 0 - - -;
#X obj 130 500 hsl 128 15 0 127 0 0 empty empty empty -2 -8 0 10 -262144
-1 -1 4 1;
#X obj 9 611 *~;
#X obj 124 449 expr $f1+$f2+$f3+$f4+$f5;
#X obj 82 859 writesf~ 2;
#X msg 162 858 open ./improviso.wav;
#X obj 38 839 split~;
#X obj 312 537 bng 15 250 50 0 empty empty empty 17 7 0 10 -262144
-1 -1;
#X msg 116 838 start;
#X msg 158 839 stop;
#X obj 124 472 / 315;
#X obj 11 635 ../../env.maker 3e+06;
#X obj 312 467 hsl 300 15 0 10000 0 0 empty empty empty -2 -8 0 10
-262144 -1 -1 29900 1;
#X floatatom 311 487 5 0 0 0 - - -;
#X obj 295 352 ./florest_ambient~;
#X obj 290 378 env~;
#X floatatom 287 401 5 0 0 0 - - -;
#X obj 420 354 ./florest_ambient~;
#X obj 415 380 env~;
#X obj 561 353 ./florest_ambient~;
#X obj 556 379 env~;
#X obj 14 450 *~;
#X obj 12 494 *~;
#X obj 12 521 *~;
#X obj 11 552 *~;
#X obj 380 550 ./florest_ambient~;
#X obj 375 576 env~;
#X obj 109 586 *~;
#X connect 0 0 3 0;
#X connect 1 0 0 0;
#X connect 4 0 15 1;
#X connect 5 0 13 1;
#X connect 7 0 15 0;
#X connect 8 0 13 0;
#X connect 12 0 10 0;
#X connect 13 0 16 1;
#X connect 14 0 6 0;
#X connect 15 0 16 0;
#X connect 16 0 17 0;
#X connect 17 0 18 0;
#X connect 17 0 19 0;
#X connect 17 0 43 0;
#X connect 18 0 21 0;
#X connect 18 0 36 0;
#X connect 18 0 43 1;
#X connect 19 0 20 0;
#X connect 20 0 25 0;
#X connect 21 0 22 0;
#X connect 22 0 25 1;
#X connect 23 0 24 1;
#X connect 24 0 33 0;
#X connect 25 0 32 0;
#X connect 27 0 26 0;
#X connect 28 0 2 0;
#X connect 28 0 26 0;
#X connect 28 1 2 1;
#X connect 28 1 26 1;
#X connect 29 0 28 1;
#X connect 30 0 26 0;
#X connect 31 0 26 0;
#X connect 32 0 23 0;
#X connect 33 0 11 0;
#X connect 33 0 28 0;
#X connect 34 0 35 0;
#X connect 35 0 32 1;
#X connect 36 0 37 0;
#X connect 36 0 39 0;
#X connect 36 0 44 1;
#X connect 37 0 38 0;
#X connect 38 0 25 2;
#X connect 39 0 40 0;
#X connect 39 0 41 0;
#X connect 39 0 45 1;
#X connect 40 0 25 3;
#X connect 41 0 42 0;
#X connect 41 0 46 1;
#X connect 42 0 25 4;
#X connect 43 0 44 0;
#X connect 44 0 45 0;
#X connect 45 0 46 0;
#X connect 46 0 24 0;
#X connect 46 0 47 0;
#X connect 46 0 49 0;
#X connect 47 0 48 0;
#X connect 47 0 49 1;
#X connect 49 0 24 0;
