#N canvas 390 235 450 300 10;
#X obj 166 77 osc~ \$1;
#X obj 166 101 *~ \$2;
#X obj 166 125 clip~ 0 \$3;
#X obj 166 149 lop~ 100;
#X obj 166 216 outlet~;
#X obj 239 14 inlet;
#X obj 166 182 *~;
#X obj 242 39 route freq amp clip lop float;
#X obj 254 186 unsig~;
#X obj 254 213 outlet;
#X connect 0 0 1 0;
#X connect 1 0 2 0;
#X connect 2 0 3 0;
#X connect 3 0 6 0;
#X connect 5 0 7 0;
#X connect 6 0 4 0;
#X connect 6 0 8 0;
#X connect 7 0 0 0;
#X connect 7 1 1 1;
#X connect 7 2 2 2;
#X connect 7 3 3 1;
#X connect 7 4 6 1;
#X connect 8 0 9 0;
