#N canvas 291 167 525 423 10;
#X obj 44 255 +~;
#X msg 159 247 0 1;
#X msg 206 221 1 1;
#X obj 159 272 line~;
#X obj 43 288 *~;
#X obj 43 316 hip~ \$3;
#X obj 159 221 del \$4;
#X obj 159 166 inlet;
#X obj 159 187 t b b;
#X obj 42 344 *~ 0.25;
#X obj 41 372 outlet~;
#X obj 44 223 osc~ \$1;
#X obj 94 223 osc~ \$2;
#X connect 0 0 4 0;
#X connect 1 0 3 0;
#X connect 2 0 3 0;
#X connect 3 0 4 1;
#X connect 4 0 5 0;
#X connect 5 0 9 0;
#X connect 6 0 1 0;
#X connect 7 0 8 0;
#X connect 8 0 6 0;
#X connect 8 1 2 0;
#X connect 9 0 10 0;
#X connect 11 0 0 0;
#X connect 12 0 0 1;
