#N canvas 3 234 450 300 10;
#X obj 36 69 inlet~;
#X obj 35 98 *~ \$1;
#X obj 35 127 bp~ \$2 \$3;
#X obj 115 94 clip~;
#X obj 128 14 loadbang;
#X obj 128 34 \$4;
#X obj 115 125 *~ \$5;
#X obj 35 216 outlet~;
#X obj 34 163 hip~ \$6;
#X obj 34 188 hip~ \$6;
#X obj 223 80 unpack f f f;
#X obj 223 13 inlet;
#X obj 223 55 route bp2 clip2;
#X obj 310 81 unpack f f;
#X obj 128 59 expr -$f1 \; $f1 \;;
#X connect 0 0 1 0;
#X connect 0 0 3 0;
#X connect 1 0 2 0;
#X connect 2 0 8 0;
#X connect 3 0 6 0;
#X connect 4 0 5 0;
#X connect 5 0 14 0;
#X connect 6 0 8 0;
#X connect 8 0 9 0;
#X connect 9 0 7 0;
#X connect 10 0 1 1;
#X connect 10 1 2 1;
#X connect 10 2 2 2;
#X connect 11 0 12 0;
#X connect 12 0 10 0;
#X connect 12 2 13 0;
#X connect 13 0 14 0;
#X connect 13 1 6 1;
#X connect 14 0 3 1;
#X connect 14 1 3 2;
