#N canvas 444 45 392 260 10;
#X obj 12 138 wire.transmission.medium;
#X obj 12 187 dac~;
#X obj 187 82 ringer 1000 6 100;
#X obj 187 60 tgl 15 0 empty empty empty 17 7 0 10 -262144 -1 -1 0
1;
#X obj 11 108 *~;
#X obj 10 27 ringtone;
#X obj 286 103 tgl 15 0 empty empty empty 17 7 0 10 -262144 -1 -1 0
0.999998;
#X connect 0 0 1 0;
#X connect 0 0 1 1;
#X connect 2 0 4 1;
#X connect 2 1 6 0;
#X connect 3 0 2 0;
#X connect 4 0 0 0;
#X connect 5 0 4 0;
