#N canvas 0 0 450 300 10;
#X obj 118 143 clip~;
#X text 189 139 first distortions;
#X text 189 167 wire ressonant filter in 2kHz;
#X obj 117 167 bp~ \$2 \$3;
#X obj 177 76 \$1;
#X obj 177 56 loadbang;
#X obj 119 59 inlet~;
#X obj 117 195 outlet~;
#X obj 287 52 inlet;
#X obj 287 77 route clip bp;
#X obj 323 102 unpack f f;
#X floatatom 176 222 5 0 0 0 - - -;
#X floatatom 213 223 5 0 0 0 - - -;
#X obj 177 101 expr -$f1 \; $f1 \;;
#X floatatom 335 137 5 0 0 0 - - -;
#X floatatom 381 135 5 0 0 0 - - -;
#X connect 0 0 3 0;
#X connect 3 0 7 0;
#X connect 4 0 13 0;
#X connect 5 0 4 0;
#X connect 6 0 0 0;
#X connect 8 0 9 0;
#X connect 9 0 13 0;
#X connect 9 1 10 0;
#X connect 10 0 3 1;
#X connect 10 0 14 0;
#X connect 10 1 3 2;
#X connect 10 1 15 0;
#X connect 13 0 11 0;
#X connect 13 0 0 1;
#X connect 13 1 0 2;
#X connect 13 1 12 0;
