#N canvas 0 22 450 300 10;
#X obj 93 98 spigot;
#X obj 93 30 inlet;
#X obj 132 30 inlet;
#X obj 92 236 outlet;
#X obj 126 68 == \$1;
#X obj 201 48 loadbang;
#X obj 195 81 \$2;
#X obj 92 158 expr ($f1/127)*$f2;
#X connect 0 0 7 0;
#X connect 1 0 0 0;
#X connect 2 0 4 0;
#X connect 4 0 0 1;
#X connect 5 0 6 0;
#X connect 6 0 7 1;
#X connect 7 0 3 0;
