#N canvas 231 88 1048 497 10;
#N canvas 0 0 450 300 (subpatch) 0;
#X array \$0-env 1 float 3;
#A 0 1;
#X coords 0 1 1 0 100 70 1 0 0;
#X restore 857 372 graph;
#N canvas 0 0 450 300 (subpatch) 0;
#X array \$0-wave 1 float 5;
#A 0 0.966574;
#X coords 0 1 1 -1 100 70 1 0 0;
#X restore 857 286 graph;
#N canvas 0 0 450 300 (subpatch) 0;
#X array \$0-grain 1 float 3;
#A 0 -0.0149221;
#X coords 0 1 1 -1 200 155 1 0 0;
#X restore 105 169 graph;
#X obj 533 169 tabwrite~ \$0-wave;
#X obj 534 28 inlet~;
#X obj -27 381;
#X obj 562 311 * 441;
#X obj 531 338 *~ 0;
#X obj 531 365 +~ 1;
#X text 577 337 <-- readjust phase for range 0 - (chunk size);
#X text 576 365 <-- add one to avoid beginning of table;
#X obj 598 27 inlet mesg;
#X obj 531 394 tabread4~ \$0-grain;
#X obj 531 421 outlet~;
#X msg 562 286 2.3622;
#X obj 668 82 t b f;
#X msg 695 109 set \$1;
#X obj 644 169 make.grain \$0-wave \$0-env \$0-grain \$1;
#X obj 598 52 route snapshot chunksize;
#X msg 498 221 stop;
#X msg 536 220 start;
#X obj 532 251 gauss.phasor~ \$2 \$3 \$4;
#X text 674 251 basefrequency \, gauss sigma \, gauss mean;
#X obj 175 150 hsl 128 15 -100 100 0 0 empty empty chunk_size 2 8 0
10 -262144 -1 -1 6500 1;
#X obj 243 134 bng 10 250 50 0 empty empty snapshot 17 7 0 10 -262144
-1 -1;
#X obj 599 79 t b b;
#X connect 4 0 3 0;
#X connect 6 0 7 1;
#X connect 7 0 8 0;
#X connect 8 0 12 0;
#X connect 11 0 18 0;
#X connect 12 0 13 0;
#X connect 14 0 6 0;
#X connect 15 0 14 0;
#X connect 15 1 16 0;
#X connect 16 0 14 0;
#X connect 18 0 24 0;
#X connect 18 1 23 0;
#X connect 19 0 21 0;
#X connect 20 0 21 0;
#X connect 21 0 7 0;
#X connect 23 0 15 0;
#X connect 24 0 25 0;
#X connect 25 0 17 0;
#X connect 25 1 3 0;
#X coords 0 -1 1 1 210 230 1 100 100;
