#N canvas 96 30 1002 608 10;
#X obj 13 358 dac~;
#X obj 128 16 hsl 128 15 10 3000 0 0 empty empty empty -2 -8 0 10 -262144
-1 -1 6300 1;
#X obj 175 42 hsl 128 15 0 1 0 0 empty empty empty -2 -8 0 10 -262144
-1 -1 9900 1;
#X floatatom 137 44 5 0 0 0 - - -;
#X obj 38 -3 hsl 128 15 10 300 0 0 empty empty empty -2 -8 0 10 -262144
-1 -1 6100 1;
#X msg 286 134 snapshot;
#X obj 286 108 metro 3000;
#X obj 287 78 tgl 15 0 empty empty empty 17 7 0 10 -262144 -1 -1 1
1;
#X obj 15 87 ../modulation/fm 440 10 30 1;
#X obj 14 116 aperiodic.gauss.grain 8192 1 1000 1;
#X connect 1 0 3 0;
#X connect 1 0 8 2;
#X connect 2 0 8 3;
#X connect 4 0 8 1;
#X connect 5 0 9 1;
#X connect 6 0 5 0;
#X connect 7 0 6 0;
#X connect 8 0 9 0;
#X connect 9 0 0 0;
#X connect 9 0 0 1;
