#N canvas 691 46 450 300 10;
#X obj 39 29 inlet;
#X obj 39 114 metro;
#X obj 39 141 t b b;
#X floatatom 93 99 20 0 0 0 - - -;
#X obj 16 83 tgl 15 0 empty empty empty 17 7 0 10 -262144 -1 -1 0 1
;
#X obj 66 202 outlet;
#X obj 39 229 gauss.number \$1;
#N canvas 750 179 450 300 set_metro 0;
#X obj 26 44 \$1;
#X obj 26 69 != 0;
#X obj 26 133 t b;
#X obj 26 95 sel 0;
#X obj 26 22 loadbang;
#X obj 53 134 t f;
#X obj 82 23 bng 15 250 50 0 empty empty empty 17 7 0 10 -262144 -1
-1;
#X obj 26 230 outlet;
#X obj 176 20 inlet;
#X obj 26 187 expr 60000/$f1;
#X obj 26 156 100;
#X connect 0 0 1 0;
#X connect 1 0 3 0;
#X connect 2 0 10 0;
#X connect 3 0 2 0;
#X connect 3 1 5 0;
#X connect 4 0 0 0;
#X connect 5 0 9 0;
#X connect 6 0 0 0;
#X connect 8 0 9 0;
#X connect 9 0 7 0;
#X connect 10 0 9 0;
#X restore 66 71 pd set_metro;
#X obj 39 257 moses \$2;
#X floatatom 100 257 5 0 0 0 - - -;
#X obj 353 50;
#X connect 0 0 1 0;
#X connect 1 0 2 0;
#X connect 2 0 6 0;
#X connect 2 1 5 0;
#X connect 4 0 1 0;
#X connect 6 0 8 0;
#X connect 7 0 1 1;
#X connect 7 0 3 0;
#X connect 8 1 9 0;
#X connect 9 0 7 0;
