#N canvas 0 0 450 300 10;
#X obj 104 141 expr abs($f1/$f2)*$f2;
#X obj 104 120 gauss \$1 1;
#X obj 227 119 \$1;
#X obj 227 93 loadbang;
#X obj 281 94 bng 15 250 50 0 empty empty empty 17 7 0 10 -262144 -1
-1;
#X obj 104 93 inlet bang;
#X obj 104 170 outlet;
#X connect 0 0 6 0;
#X connect 1 0 0 0;
#X connect 2 0 0 1;
#X connect 3 0 2 0;
#X connect 4 0 2 0;
#X connect 5 0 1 0;
