#N canvas 268 49 833 560 10;
#X msg 333 43 snapshot;
#X msg 542 43 linefreq \$1;
#X obj 330 -22 tgl 15 0 empty empty empty 17 7 0 10 -262144 -1 -1 1
1;
#X msg 404 42 chunksize \$1;
#X obj 407 23 hsl 128 15 20 500 0 0 empty empty empty -2 -8 0 10 -262144
-1 -1 2900 1;
#X obj 545 23 hsl 128 15 0.1 100 0 0 empty empty empty -2 -8 0 10 -262144
-1 -1 1300 1;
#X obj 356 148 dsp~;
#X floatatom 356 181 5 0 0 0 - - -;
#X floatatom 393 180 5 0 0 0 - - -;
#X obj 20 305 ../mono.gram;
#X obj 20 513 dac~;
#X obj 20 92 gauss.grain 8192;
#X obj 330 0 metro 2500;
#X obj 132 -8 hsl 128 15 0 1 0 0 empty empty empty -2 -8 0 10 -262144
-1 -1 1800 1;
#X obj 191 18 hsl 128 15 0 2 0 0 empty empty empty -2 -8 0 10 -262144
-1 -1 4400 1;
#X obj 19 63 ../modulation/am.singlebands.cheby.6 400 10 0.71 1;
#X connect 0 0 11 1;
#X connect 1 0 11 1;
#X connect 2 0 12 0;
#X connect 3 0 11 1;
#X connect 4 0 3 0;
#X connect 5 0 1 0;
#X connect 6 0 7 0;
#X connect 6 1 8 0;
#X connect 9 0 10 0;
#X connect 9 0 10 1;
#X connect 11 0 9 0;
#X connect 12 0 0 0;
#X connect 13 0 15 2;
#X connect 14 0 15 3;
#X connect 15 0 11 0;
