#N canvas 0 0 758 662 10;
#X obj 24 29 inlet;
#X obj 24 68 t b a;
#X obj 112 85 unpack f f f;
#X obj 147 130 s \$0-pitch;
#X obj 117 157 s \$0-start;
#X obj 24 199 f;
#X obj 206 41 inlet;
#X obj 206 80 t b a;
#X obj 294 97 unpack f f f;
#X obj 299 169 s \$0-gstart;
#X obj 329 142 s \$0-gpitch;
#X obj 365 119 s \$0-gdur;
#X obj 39 166 r \$0-dur;
#X obj 181 109 s \$0-dur;
#X obj 24 253 * 1;
#X obj 39 223 r \$0-gdur;
#X obj 24 283 t f f;
#X msg 69 312 0 \, 1 \$1 0;
#X obj 259 329 vline~;
#X obj 259 387 *~;
#X obj 214 388 / 1000;
#X obj 214 412 sig~;
#X obj 274 360 r \$0-pitch;
#X obj 259 412 *~ 1;
#X obj 288 386 r \$0-gpitch;
#X obj 214 458 *~;
#X obj 214 506 +~;
#X obj 229 482 r \$0-start;
#X obj 215 554 +~;
#X obj 230 529 r \$0-gstart;
#X obj 215 590 tabread4~ \$1;
#X obj 97 455 tabread4~ \$2;
#X obj 97 430 *~ \$3;
#X obj 98 608 *~;
#X obj 98 635 outlet~;
#X connect 0 0 1 0;
#X connect 1 0 5 0;
#X connect 1 1 2 0;
#X connect 2 0 4 0;
#X connect 2 1 3 0;
#X connect 2 2 13 0;
#X connect 5 0 14 0;
#X connect 6 0 7 0;
#X connect 7 0 5 0;
#X connect 7 1 8 0;
#X connect 8 0 9 0;
#X connect 8 1 10 0;
#X connect 8 2 11 0;
#X connect 12 0 5 1;
#X connect 14 0 16 0;
#X connect 15 0 14 1;
#X connect 16 0 20 0;
#X connect 16 1 17 0;
#X connect 17 0 18 0;
#X connect 18 0 19 0;
#X connect 18 0 32 0;
#X connect 19 0 23 0;
#X connect 20 0 21 0;
#X connect 21 0 25 0;
#X connect 22 0 19 1;
#X connect 23 0 25 1;
#X connect 24 0 23 1;
#X connect 25 0 26 0;
#X connect 26 0 28 0;
#X connect 27 0 26 1;
#X connect 28 0 30 0;
#X connect 29 0 28 1;
#X connect 30 0 33 1;
#X connect 31 0 33 0;
#X connect 32 0 31 0;
#X connect 33 0 34 0;
