#N canvas 495 231 450 300 10;
#X obj 44 68 inlet;
#X obj 44 117 t f f f;
#X obj 63 144 tabread \$2;
#X obj 42 207 *;
#X obj 42 234 tabwrite \$3;
#X obj 42 176 tabread \$1;
#X obj 197 43 loadbang;
#X obj 197 125 tabwrite \$2;
#X obj 44 92 for++ 0 \$4;
#X msg 306 101 resize \$1;
#X obj 306 126 s \$1;
#X obj 339 126 s \$2;
#X obj 371 126 s \$3;
#X obj 197 68 t b b;
#X obj 306 78 \$4;
#X obj 197 101 ../make.gauss \$4;
#X connect 0 0 8 0;
#X connect 1 0 5 0;
#X connect 1 1 2 0;
#X connect 1 2 4 1;
#X connect 2 0 3 1;
#X connect 3 0 4 0;
#X connect 5 0 3 0;
#X connect 6 0 13 0;
#X connect 8 0 1 0;
#X connect 9 0 10 0;
#X connect 9 0 11 0;
#X connect 9 0 12 0;
#X connect 13 0 15 0;
#X connect 13 1 14 0;
#X connect 14 0 9 0;
#X connect 15 0 7 0;
#X connect 15 1 7 1;
