#N canvas 356 22 1101 712 10;
#X obj 310 85 r msg;
#X obj 606 91 r msg;
#X obj 25 89 catch~ a;
#X obj 349 85 catch~ b;
#X obj 24 22 metro 3000;
#X obj 24 3 tgl 15 0 empty empty empty 17 7 0 10 -262144 -1 -1 1 1
;
#X msg 24 42 \; msg snapshot;
#X obj 116 57 throw~ a;
#X obj 477 55 throw~ b;
#X obj 361 113 ../granular/aperiodic.gauss.grain 8192 1 100 3;
#X obj 34 110 ../granular/aperiodic.gauss.grain 8192 1 100 1;
#X obj 36 539 ../webcastPD/cast.server~;
#X obj 51 466 dbtorms;
#X obj 58 440 hsl 128 15 1 100 0 0 empty empty empty -2 -8 0 10 -262144
-1 -1 4600 1;
#X obj 115 34 ../modulation/am.singlebands.cheby.5 220 56 10 0.9;
#X obj 477 33 ../modulation/am.singlebands.cheby.6 221 54 2 0.6;
#N canvas 534 387 450 300 reverb 0;
#N canvas 142 175 1138 427 reverb 0;
#X obj 23 26 inlet~;
#X obj 26 253 outlet~;
#X obj 22 62 delwrite~ _1 10;
#X obj 26 182 delread~ _1 10;
#X obj 128 63 delwrite~ _2 15;
#X obj 132 183 delread~ _2 15;
#X obj 233 63 delwrite~ _3 20;
#X obj 236 183 delread~ _3 20;
#X obj 339 64 delwrite~ _4 25;
#X obj 343 184 delread~ _4 25;
#X obj 444 66 delwrite~ _5 30;
#X obj 448 186 delread~ _5 30;
#X obj 550 67 delwrite~ _6 35;
#X obj 554 187 delread~ _6 35;
#X obj 655 67 delwrite~ _7 40;
#X obj 657 187 delread~ _7 40;
#X obj 761 68 delwrite~ _8 45;
#X obj 762 185 delread~ _8 45;
#X connect 0 0 2 0;
#X connect 3 0 1 0;
#X connect 3 0 4 0;
#X connect 5 0 1 0;
#X connect 5 0 6 0;
#X connect 7 0 1 0;
#X connect 7 0 8 0;
#X connect 9 0 1 0;
#X connect 9 0 10 0;
#X connect 11 0 1 0;
#X connect 11 0 12 0;
#X connect 13 0 1 0;
#X connect 13 0 14 0;
#X connect 15 0 1 0;
#X connect 15 0 16 0;
#X connect 17 0 1 0;
#X restore 41 113 pd reverb;
#N canvas 142 175 1138 427 reverb 0;
#X obj 23 26 inlet~;
#X obj 26 253 outlet~;
#X obj 128 63 delwrite~ _b 15;
#X obj 233 63 delwrite~ _c 20;
#X obj 339 64 delwrite~ _d 25;
#X obj 444 66 delwrite~ _e 30;
#X obj 550 67 delwrite~ _f 35;
#X obj 655 67 delwrite~ _g 40;
#X obj 761 68 delwrite~ _h 45;
#X obj 762 185 delread~ _h 45;
#X obj 657 187 delread~ _g 40;
#X obj 554 187 delread~ _f 35;
#X obj 448 186 delread~ _e 30;
#X obj 343 184 delread~ _d 25;
#X obj 236 183 delread~ _c 20;
#X obj 132 183 delread~ _b 15;
#X obj 22 62 delwrite~ _a 10;
#X obj 26 182 delread~ _a 10;
#X connect 0 0 16 0;
#X connect 9 0 1 0;
#X connect 10 0 1 0;
#X connect 10 0 8 0;
#X connect 11 0 1 0;
#X connect 11 0 7 0;
#X connect 12 0 1 0;
#X connect 12 0 6 0;
#X connect 13 0 1 0;
#X connect 13 0 5 0;
#X connect 14 0 1 0;
#X connect 14 0 4 0;
#X connect 15 0 1 0;
#X connect 15 0 3 0;
#X connect 17 0 1 0;
#X connect 17 0 2 0;
#X restore 109 113 pd reverb;
#X obj 103 84 *~;
#X obj 99 24 inlet~;
#X obj 153 24 inlet~;
#X obj 41 148 outlet~;
#X obj 106 148 outlet~;
#X connect 0 0 5 0;
#X connect 1 0 6 0;
#X connect 2 0 1 0;
#X connect 2 0 0 0;
#X connect 3 0 2 0;
#X connect 4 0 2 1;
#X restore 36 411 pd reverb;
#X obj 36 498 *~;
#X obj 87 497 *~;
#N canvas 113 334 541 392 file 0;
#X msg -2469 -4037 start;
#X obj -2469 -3996 readsf~ 2;
#X msg -2470 -4105 open ./teste.wav;
#X msg -2416 -4036 stop;
#X obj -2374 -3953 dbtorms;
#X obj -2367 -3979 hsl 128 15 1 100 0 0 empty empty empty -2 -8 0 10
-262144 -1 -1 7184 1;
#X floatatom -2378 -3920 5 0 0 0 - - -;
#X obj -2468 -3958 *~;
#X obj -2441 -3961 *~;
#X obj -2282 -4047 delay 2700;
#X obj -2470 -4082 t b b b a;
#X floatatom -2156 -3945 5 0 0 0 - - -;
#X obj -2212 -4001 random 35000;
#X floatatom -2235 -3814 5 0 0 0 - - -;
#X obj -2275 -3916 random 100;
#X obj -2384 -3882 random 100;
#X floatatom -2342 -3796 5 0 0 0 - - -;
#X obj -2213 -3971 moses 100;
#X obj -2276 -3886 moses 25;
#X obj -2385 -3852 moses 25;
#X obj -2467 -4133 inlet;
#X obj -2482 -3872 outlet~;
#X obj -2453 -3849 outlet~;
#X obj -2416 -3808 outlet;
#X connect 0 0 1 0;
#X connect 1 0 7 0;
#X connect 1 1 8 0;
#X connect 2 0 10 0;
#X connect 3 0 1 0;
#X connect 4 0 6 0;
#X connect 5 0 4 0;
#X connect 6 0 8 1;
#X connect 6 0 7 1;
#X connect 7 0 21 0;
#X connect 8 0 22 0;
#X connect 9 0 2 0;
#X connect 9 0 14 0;
#X connect 9 0 15 0;
#X connect 10 0 12 0;
#X connect 10 1 9 0;
#X connect 10 2 0 0;
#X connect 10 3 1 0;
#X connect 11 0 9 1;
#X connect 12 0 17 0;
#X connect 13 0 5 0;
#X connect 14 0 18 0;
#X connect 15 0 19 0;
#X connect 16 0 23 0;
#X connect 17 1 11 0;
#X connect 18 1 13 0;
#X connect 19 1 16 0;
#X connect 20 0 2 0;
#X restore 51 384 pd file;
#X obj 57 361 bng 15 250 50 0 empty empty empty 17 7 0 10 -262144 -1
-1;
#X connect 0 0 10 1;
#X connect 1 0 9 1;
#X connect 2 0 10 0;
#X connect 3 0 9 0;
#X connect 4 0 6 0;
#X connect 5 0 4 0;
#X connect 9 0 16 1;
#X connect 10 0 16 0;
#X connect 12 0 17 1;
#X connect 12 0 18 1;
#X connect 13 0 12 0;
#X connect 14 0 7 0;
#X connect 15 0 8 0;
#X connect 16 0 17 0;
#X connect 16 1 18 0;
#X connect 17 0 11 0;
#X connect 18 0 11 1;
#X connect 19 0 16 0;
#X connect 19 1 16 1;
#X connect 20 0 19 0;
