#N canvas 304 226 450 300 10;
#X obj 47 119 phasor~ \$1;
#X obj 118 119 osc~ \$1;
#X obj 49 7 inlet;
#X obj 117 154 expr 1-$f1;
#X obj 102 183 *~;
#X obj 47 223 +~;
#X obj 47 272 outlet~;
#X obj 47 180 *~;
#X obj 236 68 loadbang;
#X obj 236 97 \$2;
#X obj 47 246 *~ \$3;
#X obj 48 35 route freq phase amp index;
#X connect 0 0 7 0;
#X connect 1 0 4 0;
#X connect 2 0 11 0;
#X connect 3 0 4 1;
#X connect 4 0 5 1;
#X connect 5 0 10 0;
#X connect 7 0 5 0;
#X connect 8 0 9 0;
#X connect 9 0 3 0;
#X connect 9 0 7 1;
#X connect 10 0 6 0;
#X connect 11 0 0 0;
#X connect 11 0 1 0;
#X connect 11 1 0 1;
#X connect 11 1 1 1;
#X connect 11 2 10 1;
#X connect 11 3 3 0;
#X connect 11 3 7 1;
