#N canvas 296 169 450 300 10;
#X obj 34 25 osc~ \$1;
#X obj 34 -3 inlet;
#X obj 34 201 outlet~;
#X obj 19 96 *~;
#X obj 34 123 +~;
#X obj 35 149 *~ 0.5;
#X obj 35 175 hip~ 1;
#X obj 35 54 *~ \$2;
#X text 168 70 T2 = 2x^2-1;
#X obj 86 2 inlet;
#X connect 0 0 7 0;
#X connect 1 0 0 0;
#X connect 3 0 4 0;
#X connect 4 0 5 0;
#X connect 5 0 6 0;
#X connect 6 0 2 0;
#X connect 7 0 3 0;
#X connect 7 0 3 1;
#X connect 7 0 4 1;
#X connect 9 0 7 1;
