#N canvas 488 90 578 443 10;
#X obj 0 -2875 dac~;
#X obj -1 -3126 ../mono.gram;
#X obj 144 -3182 hsl 128 15 0 1 0 0 empty empty empty -2 -8 0 10 -262144
-1 -1 2800 1;
#X floatatom 164 -3154 5 0 0 0 - - -;
#X obj 451 -3105 dsp~;
#X obj 451 -3060;
#X floatatom 452 -3022 5 0 0 0 - - -;
#X floatatom 493 -3048 5 0 0 0 - - -;
#X obj 0 -3157 chebychev.sixth 440 0.09;
#X connect 1 0 0 0;
#X connect 1 0 0 1;
#X connect 2 0 3 0;
#X connect 2 0 8 1;
#X connect 4 0 6 0;
#X connect 4 1 7 0;
#X connect 8 0 1 0;
