#N canvas 0 0 450 335 10;
#X obj 26 19 inlet;
#X obj 27 50 osc~ \$1;
#X obj 26 90 *~ \$2;
#X obj 26 123 *~;
#X obj 27 152 *~;
#X obj 26 178 *~ 8;
#X obj 82 178 *~ 8;
#X obj 25 214 -~;
#X obj 25 277 hip~ 1;
#X obj 24 305 outlet~;
#X obj 92 18 inlet;
#X obj 25 245 *~ 0.5;
#X connect 0 0 1 0;
#X connect 1 0 2 0;
#X connect 2 0 3 0;
#X connect 2 0 3 1;
#X connect 3 0 4 0;
#X connect 3 0 4 1;
#X connect 3 0 6 0;
#X connect 4 0 5 0;
#X connect 5 0 7 0;
#X connect 6 0 7 1;
#X connect 7 0 11 0;
#X connect 8 0 9 0;
#X connect 10 0 2 1;
#X connect 11 0 8 0;
