#N canvas 0 0 450 300 10;
#X obj 44 42 osc~ \$1;
#X obj 44 10 inlet;
#X obj 41 296 outlet~;
#X obj 5 110 *~;
#X obj 42 265 hip~ 1;
#X text 178 80 T2 = 4x^3-3x;
#X obj 5 142 *~;
#X obj 43 172 *~ 4;
#X obj 90 171 *~ 3;
#X obj 43 210 -~;
#X obj 43 79 *~ \$2;
#X obj 126 15 inlet;
#X obj 42 236 *~ 0.71;
#X connect 0 0 10 0;
#X connect 1 0 0 0;
#X connect 3 0 6 0;
#X connect 4 0 2 0;
#X connect 6 0 7 0;
#X connect 7 0 9 0;
#X connect 8 0 9 1;
#X connect 9 0 12 0;
#X connect 10 0 3 0;
#X connect 10 0 3 1;
#X connect 10 0 8 0;
#X connect 10 0 6 1;
#X connect 11 0 10 1;
#X connect 12 0 4 0;
