#N canvas 237 285 299 206 10;
#X obj 19 10 inlet;
#X obj 93 13 inlet;
#X msg 18 130 position2D \$1 \$2;
#X obj 18 157 outlet;
#X obj 19 56 \$1;
#X obj 19 102 pack f 0;
#X obj 93 56 \$2;
#X obj 92 101 pack 0 f;
#X obj 163 11 inlet;
#X obj 163 41 \$1;
#X obj 163 70 * -1;
#X obj 163 101 pack f 0;
#X obj 232 11 inlet;
#X obj 232 70 * -1;
#X obj 232 41 \$2;
#X obj 232 101 pack 0 f;
#X connect 0 0 4 0;
#X connect 1 0 6 0;
#X connect 2 0 3 0;
#X connect 4 0 5 0;
#X connect 5 0 2 0;
#X connect 6 0 7 0;
#X connect 7 0 2 0;
#X connect 8 0 9 0;
#X connect 9 0 10 0;
#X connect 10 0 11 0;
#X connect 11 0 2 0;
#X connect 12 0 14 0;
#X connect 13 0 15 0;
#X connect 14 0 13 0;
#X connect 15 0 2 0;
