#N canvas 0 0 288 172 10;
#X obj 82 96 outlet;
#X obj 55 62 unpack s f f f;
#X obj 125 96 outlet;
#X obj 167 96 outlet;
#X obj 55 36 inlet;
#X connect 1 1 0 0;
#X connect 1 2 2 0;
#X connect 1 3 3 0;
#X connect 4 0 1 0;
