#N canvas 280 115 666 358 10;
#X obj 6 141 outlet;
#X obj 7 114 expr $f1 * $f2 * (1/$f3);
#X obj 7 42 inlet;
#X obj 7 69 route A E length K x;
#X obj 166 114 expr $f1 / $f2;
#X obj 166 137 outlet;
#X connect 1 0 0 0;
#X connect 2 0 3 0;
#X connect 3 0 1 0;
#X connect 3 1 1 1;
#X connect 3 2 1 2;
#X connect 3 3 4 0;
#X connect 3 4 4 1;
#X connect 4 0 5 0;
