#N canvas 0 56 703 393 10;
#N canvas 487 125 532 417 main 0;
#X obj 44 47 \$1;
#X obj 18 5 loadbang;
#X obj 18 26 t b b;
#N canvas 709 466 450 300 create-unpackers 0;
#X obj 12 96 pack f f;
#X obj 12 117 t b a;
#X msg 39 143 set obj \$1 \$2 mass.unpacker;
#X msg 12 172 obj 180 100 mass.unpacker;
#X obj 12 58 expr ($f1*90) \; 100;
#X obj 12 26 inlet;
#X obj 12 200 outlet;
#X connect 0 0 1 0;
#X connect 1 0 3 0;
#X connect 1 1 2 0;
#X connect 2 0 3 0;
#X connect 3 0 6 0;
#X connect 4 0 0 0;
#X connect 4 1 0 1;
#X connect 5 0 4 0;
#X restore 17 210 pd create-unpackers;
#X obj 17 279 s pd-stringer.visualize.pd;
#N canvas 492 339 450 300 create-inlets 0;
#X obj 12 96 pack f f;
#X obj 12 117 t b a;
#X msg 12 172 obj 180 50 inlet;
#X obj 12 26 inlet;
#X obj 12 200 outlet;
#X msg 39 143 set obj \$1 \$2 inlet;
#X obj 12 58 expr ($f1*90) \; 50;
#X connect 0 0 1 0;
#X connect 1 0 2 0;
#X connect 1 1 5 0;
#X connect 2 0 4 0;
#X connect 3 0 6 0;
#X connect 5 0 2 0;
#X connect 6 0 0 0;
#X connect 6 1 0 1;
#X restore 56 190 pd create-inlets;
#N canvas 749 285 450 338 create-outlets 0;
#X obj 12 191 pack f f;
#X obj 12 212 t b a;
#X msg 12 267 obj 150 250 outlet;
#X obj 11 5 inlet;
#X obj 12 295 outlet;
#X msg 39 238 set obj \$1 \$2 outlet;
#X obj 11 132 expr $f1*30 \; 150+($f1*20);
#X obj 11 106 for++ 0;
#X obj 36 51 \$1;
#X obj 11 28 t b b;
#X obj 36 72 expr $f1*2-1;
#X obj 55 295 outlet;
#X connect 0 0 1 0;
#X connect 1 0 2 0;
#X connect 1 1 5 0;
#X connect 2 0 4 0;
#X connect 3 0 9 0;
#X connect 5 0 2 0;
#X connect 6 0 0 0;
#X connect 6 1 0 1;
#X connect 7 0 6 0;
#X connect 7 1 11 0;
#X connect 8 0 10 0;
#X connect 9 0 7 0;
#X connect 9 1 8 0;
#X connect 10 0 7 1;
#X restore 219 171 pd create-outlets;
#X obj 87 7 bng 15 250 50 0 empty empty empty 17 7 0 10 -262144 -1
-1;
#N canvas 233 394 450 283 connect-inlets 0;
#X msg 52 222 set connect \$1 0 \$2 0;
#X obj 25 178 pack f f;
#X obj 25 198 t b a;
#X obj 25 5 inlet;
#X obj 24 274 outlet;
#X obj 25 115 expr $f1+1 \; $f1+2;
#X obj 25 89 for++ 0;
#X msg 24 246 connect 5 0 6 0;
#X obj 25 26 t b b;
#X obj 52 46 \$1;
#X obj 52 66 expr ($f1*2)-2;
#X obj 173 261 outlet;
#X connect 0 0 7 0;
#X connect 1 0 2 0;
#X connect 2 0 7 0;
#X connect 2 1 0 0;
#X connect 3 0 8 0;
#X connect 5 0 1 0;
#X connect 5 1 1 1;
#X connect 6 0 5 0;
#X connect 6 1 11 0;
#X connect 7 0 4 0;
#X connect 8 0 6 0;
#X connect 8 1 9 0;
#X connect 9 0 10 0;
#X connect 10 0 6 1;
#X restore 240 198 pd connect-inlets;
#X obj 17 157 t f f;
#X obj 219 152 bng 15 250 50 0 empty empty empty 17 7 0 10 -262144
-1 -1;
#X obj 18 135 for++ 0;
#X obj 44 71 - 1;
#N canvas 749 285 450 414 connect-outlets 1;
#X obj 8 298 t b a;
#X obj 11 5 inlet;
#X obj 8 381 outlet;
#X obj 11 106 for++ 0;
#X obj 38 51 \$1;
#X obj 11 28 t b b;
#X msg 8 353 connect 6 1 12 0;
#X obj 8 277 pack f f f;
#X obj 98 38 bng 15 250 50 0 empty empty empty 17 7 0 10 -262144 -1
-1;
#X obj 37 73 + 2;
#X msg 76 105 1000;
#X obj 124 378 bng 15 250 50 0 empty empty empty 17 7 0 10 -262144
-1 -1;
#X obj 177 363 counter;
#X floatatom 176 387 5 0 0 0 - - -;
#X msg 35 323 set connect \$1 \$2 \$3 0;
#X obj 202 299 bng 15 250 50 0 empty empty empty 17 7 0 10 -262144
-1 -1;
#X msg 182 331 0;
#X obj 11 156 expr if($f1%2==0 \, $f1+2 \, $f1+1) \; $f1%($f2-1)!=0
\; $f1+7;
#X connect 0 0 6 0;
#X connect 0 0 11 0;
#X connect 0 1 14 0;
#X connect 1 0 5 0;
#X connect 3 0 17 0;
#X connect 4 0 9 0;
#X connect 4 0 17 1;
#X connect 5 0 3 0;
#X connect 5 1 4 0;
#X connect 6 0 2 0;
#X connect 7 0 0 0;
#X connect 8 0 5 0;
#X connect 9 0 3 1;
#X connect 10 0 3 2;
#X connect 11 0 12 0;
#X connect 12 0 13 0;
#X connect 14 0 6 0;
#X connect 15 0 12 2;
#X connect 16 0 12 0;
#X connect 17 0 7 0;
#X connect 17 1 7 1;
#X connect 17 2 7 2;
#X restore 255 227 pd connect-outlets;
#X connect 0 0 12 0;
#X connect 1 0 2 0;
#X connect 2 0 11 0;
#X connect 2 1 0 0;
#X connect 3 0 4 0;
#X connect 5 0 4 0;
#X connect 6 0 4 0;
#X connect 6 1 8 0;
#X connect 7 0 2 0;
#X connect 8 0 4 0;
#X connect 8 1 13 0;
#X connect 9 0 3 0;
#X connect 9 1 5 0;
#X connect 10 0 6 0;
#X connect 11 0 9 0;
#X connect 11 1 10 0;
#X connect 12 0 11 1;
#X connect 13 0 4 0;
#X restore 0 4 pd main;
