#N canvas 579 290 580 390 10;
#X obj 18 30 metro 30;
#X obj 19 3 tgl 15 0 empty empty empty 17 7 0 10 -262144 -1 -1 1 1
;
#X obj 17 63 s stringlink;
#X obj 131 35 move.string 10;
#X obj 129 249 unpack s f f;
#X floatatom 158 282 20 0 0 0 - - -;
#X floatatom 199 279 5 0 0 0 - - -;
#X obj 131 215 stringer 3 100 50 25 17.5 100;
#X obj 68 243 print;
#X connect 0 0 2 0;
#X connect 1 0 0 0;
#X connect 3 0 7 0;
#X connect 3 1 7 1;
#X connect 4 2 6 0;
#X connect 4 2 5 0;
#X connect 7 0 8 0;
