#N canvas 0 0 954 713 10;
#X obj 31 632 s pd-stringer.pd;
#X msg 31 609 connect 5 1 6 0;
#N canvas 725 286 450 300 create-link 0;
#X msg 176 91 set;
#X obj 64 20 inlet;
#X obj 71 250 outlet;
#X obj 64 46 t b a b b a b;
#X msg 140 122 set obj \$1 \$2 link;
#X msg 91 209 add \$3 \$4;
#X msg 116 156 adddollsym $\$0-link;
#X connect 0 0 2 0;
#X connect 1 0 3 0;
#X connect 3 0 2 0;
#X connect 3 1 5 0;
#X connect 3 2 6 0;
#X connect 3 4 4 0;
#X connect 3 5 0 0;
#X connect 4 0 2 0;
#X connect 5 0 2 0;
#X connect 6 0 2 0;
#X restore 31 525 pd create-link;
#N canvas 184 278 450 300 create-mass 0;
#X msg 176 91 set;
#X obj 64 20 inlet;
#X obj 71 250 outlet;
#X obj 64 46 t b a b b a b;
#X msg 140 122 set obj \$1 \$2 mass2D;
#X msg 91 208 add \$3 \$4;
#X msg 115 157 adddollsym $\$0-mass2D;
#X connect 0 0 2 0;
#X connect 1 0 3 0;
#X connect 3 0 2 0;
#X connect 3 1 5 0;
#X connect 3 2 6 0;
#X connect 3 4 4 0;
#X connect 3 5 0 0;
#X connect 4 0 2 0;
#X connect 5 0 2 0;
#X connect 6 0 2 0;
#X restore 136 523 pd create-mass;
#X obj 70 201 mod 2;
#X msg 136 486 30 90 1 1;
#X obj 31 287 spigot;
#X obj 78 286 spigot;
#X obj 70 250 expr 1-$f1;
#X obj 70 225 t f f;
#X obj 31 178 t f f f;
#X obj 31 311 expr if($f1==0 \, 0 \, $f1*30);
#X obj 78 331 expr if($f1==0 \, 0 \, $f1*30);
#X obj 31 353 t b f;
#X msg 31 489 0 0 1 1;
#X msg 58 380 set 0 \$1 1 1;
#X obj 78 405 t b f;
#X obj 334 168 bng 15 250 50 0 empty empty empty 17 7 0 10 -262144
-1 -1;
#X msg 105 431 set 30 \$1 1 1;
#X obj 335 337 pack f f f f;
#X msg 354 393 set connect \$1 \$2 \$3 \$4;
#X obj 335 270 expr if($f1==0 \, 1 \, $f1+1) \; 1 - $f1 % 2 \; if($f1==0
\, 2 \, $f1+2) \; f1 % 2;
#X obj 334 227 t f f;
#X obj 335 365 t b a b a;
#X msg 386 422 set connect \$3 \$4 \$1 \$2;
#X obj 111 89 \$1;
#X obj 31 150 for++ 0;
#X obj 31 72 t b b;
#X obj 31 27 loadbang;
#X obj 334 196 for++ 0;
#X obj 111 111 expr if($f1==0 \, 2 \, $f1*2);
#X connect 1 0 0 0;
#X connect 2 0 1 0;
#X connect 3 0 1 0;
#X connect 4 0 9 0;
#X connect 5 0 3 0;
#X connect 6 0 11 0;
#X connect 7 0 12 0;
#X connect 8 0 6 1;
#X connect 9 0 8 0;
#X connect 9 1 7 1;
#X connect 10 0 6 0;
#X connect 10 1 7 0;
#X connect 10 2 4 0;
#X connect 11 0 13 0;
#X connect 12 0 16 0;
#X connect 13 0 14 0;
#X connect 13 1 15 0;
#X connect 14 0 2 0;
#X connect 15 0 14 0;
#X connect 16 0 5 0;
#X connect 16 1 18 0;
#X connect 17 0 29 0;
#X connect 18 0 5 0;
#X connect 19 0 23 0;
#X connect 20 0 1 0;
#X connect 21 0 19 0;
#X connect 21 1 19 1;
#X connect 21 2 19 2;
#X connect 21 3 19 3;
#X connect 22 0 21 0;
#X connect 23 0 1 0;
#X connect 23 1 20 0;
#X connect 23 2 1 0;
#X connect 23 3 24 0;
#X connect 24 0 1 0;
#X connect 25 0 30 0;
#X connect 26 0 10 0;
#X connect 26 1 17 0;
#X connect 27 0 26 0;
#X connect 27 1 25 0;
#X connect 28 0 27 0;
#X connect 29 0 22 0;
#X connect 30 0 26 1;
#X connect 30 0 29 1;
