#N canvas 110 39 510 622 10;
#N canvas 399 15 295 77 main 1;
#X obj 22 117 s pd-stringer.pd;
#X obj 22 11 loadbang;
#X obj 115 62 bng 15 250 50 0 empty empty empty 17 7 0 10 -262144 -1
-1;
#X obj 83 13 bng 15 250 50 0 empty empty empty 17 7 0 10 -262144 -1
-1;
#N canvas 475 0 671 704 create-string 1;
#N canvas 725 286 450 300 create-link 0;
#X msg 176 91 set;
#X obj 64 20 inlet;
#X obj 71 250 outlet;
#X obj 64 46 t b a b a b;
#X msg 140 122 set obj \$1 \$2 link2D;
#X msg 107 162 add2 stringlink;
#X msg 95 208 add2 \$3 \$4 \$5 \$6;
#X connect 0 0 2 0;
#X connect 1 0 3 0;
#X connect 3 0 2 0;
#X connect 3 1 6 0;
#X connect 3 2 5 0;
#X connect 3 3 4 0;
#X connect 3 4 0 0;
#X connect 4 0 2 0;
#X connect 5 0 2 0;
#X connect 6 0 2 0;
#X restore 23 568 pd create-link;
#N canvas 155 222 450 300 create-mass 0;
#X msg 176 91 set;
#X obj 64 20 inlet;
#X obj 71 250 outlet;
#X obj 64 46 t b a b b a b;
#X msg 140 122 set obj \$1 \$2 mass2D;
#X msg 114 158 add2 stringlink;
#X msg 91 208 add2 \$3 \$4 \$5;
#X connect 0 0 2 0;
#X connect 1 0 3 0;
#X connect 3 0 2 0;
#X connect 3 1 6 0;
#X connect 3 2 5 0;
#X connect 3 4 4 0;
#X connect 3 5 0 0;
#X connect 4 0 2 0;
#X connect 5 0 2 0;
#X connect 6 0 2 0;
#X restore 256 573 pd create-mass;
#X msg 256 543 30 180 0.333333 0 0;
#X obj 23 365 spigot;
#X obj 256 373 spigot;
#X obj 136 316 expr 1-$f1;
#X obj 136 291 t f f;
#X obj 22 250 t f f f;
#X msg 23 543 0 210 25 12.5 6.25 4.375;
#X obj 494 257 bng 15 250 50 0 empty empty empty 17 7 0 10 -262144
-1 -1;
#X obj 495 426 pack f f f f;
#X msg 514 482 set connect \$1 \$2 \$3 \$4;
#X obj 494 316 t f f;
#X obj 495 454 t b a b a;
#X msg 546 511 set connect \$3 \$4 \$1 \$2;
#X obj 50 63 \$1;
#X obj 22 209 for++ 0;
#X obj 494 285 for++ 0;
#X obj 22 4 inlet;
#X obj 23 824 outlet;
#X obj 533 706 outlet;
#X obj 49 186 t f f;
#X obj 136 267 mod 2;
#X msg 23 800 connect 9 1 10 0;
#X obj 495 359 expr if($f1==0 \, 3 \, $f1+3) \; 1 - $f1 % 2 \; if($f1==0
\, 4 \, $f1+4) \; f1 % 2;
#X text 347 1 Number of masses;
#X obj 80 63 \$2;
#X text 347 15 Length of link;
#X text 348 30 Rigidity of link;
#X obj 23 396 expr if($f1==0 \, 30 \, ($f1+1)*30) \;;
#X obj 110 63 \$3;
#X obj 23 473 t b a;
#X obj 141 62 \$4;
#X obj 176 60 \$5;
#X text 349 44 Damping of link;
#X text 349 58 Damping 2 of link;
#X obj 208 60 \$6;
#X text 348 72 Mass of string (mass of each particle is massstring/n)
;
#X obj 23 418 pack f f f f f;
#X msg 52 498 set 0 \$1 \$2 \$3 \$4 \$5;
#X obj 256 462 t b a;
#X text 273 150 Total length;
#X text 349 87 vertical / horizontal;
#X obj 22 25 t b b b b b b b b;
#X obj 49 85 expr if($f1==0 \, 2 \, $f1*2) \; if($f2==0 \, 10/($f1+1)
\, $f2/($f1+1)) \; if($f3==0 \, 10/($f1+1) \, $f3/($f1+1)) \; if($f4==0
\, 10/($f1+1) \, $f4/($f1+1)) \; if($f5==0 \, 10/($f1+1) \, $f5/($f1+1))
\; if($f6==0 \, 1/($f1) \, $f6/$f1) \;;
#X obj 256 397 expr if($f1==0 \, 0 \, ($f1+1)*30) \; $f1;
#X obj 256 436 pack f f f;
#X msg 283 485 set 30 \$1 \$2 \$3 0;
#X connect 0 0 23 0;
#X connect 1 0 23 0;
#X connect 2 0 1 0;
#X connect 3 0 29 0;
#X connect 4 0 45 0;
#X connect 5 0 3 1;
#X connect 6 0 5 0;
#X connect 6 1 4 1;
#X connect 7 0 3 0;
#X connect 7 1 4 0;
#X connect 7 2 22 0;
#X connect 8 0 0 0;
#X connect 9 0 17 0;
#X connect 10 0 13 0;
#X connect 11 0 23 0;
#X connect 12 0 24 0;
#X connect 13 0 23 0;
#X connect 13 1 11 0;
#X connect 13 2 23 0;
#X connect 13 3 14 0;
#X connect 14 0 23 0;
#X connect 15 0 44 0;
#X connect 16 0 7 0;
#X connect 16 1 9 0;
#X connect 17 0 12 0;
#X connect 17 1 20 0;
#X connect 18 0 43 0;
#X connect 21 0 16 1;
#X connect 21 1 17 1;
#X connect 22 0 6 0;
#X connect 23 0 19 0;
#X connect 24 0 10 0;
#X connect 24 1 10 1;
#X connect 24 2 10 2;
#X connect 24 3 10 3;
#X connect 26 0 44 1;
#X connect 29 0 38 0;
#X connect 30 0 44 2;
#X connect 31 0 8 0;
#X connect 31 1 39 0;
#X connect 32 0 44 3;
#X connect 33 0 44 4;
#X connect 36 0 44 5;
#X connect 38 0 31 0;
#X connect 39 0 8 0;
#X connect 40 0 2 0;
#X connect 40 1 47 0;
#X connect 43 0 16 0;
#X connect 43 1 15 0;
#X connect 43 2 26 0;
#X connect 43 3 30 0;
#X connect 43 4 32 0;
#X connect 43 5 33 0;
#X connect 43 6 36 0;
#X connect 44 0 21 0;
#X connect 44 1 38 1;
#X connect 44 2 38 2;
#X connect 44 3 38 3;
#X connect 44 4 38 4;
#X connect 44 5 46 1;
#X connect 45 0 46 0;
#X connect 45 1 46 2;
#X connect 46 0 40 0;
#X connect 47 0 2 0;
#X restore 22 38 pd create-string;
#N canvas 517 160 725 497 connect-string 0;
#X msg 36 416 connect 2 0 9 1;
#N canvas 725 286 450 300 create-outlet 0;
#X msg 176 91 set;
#X obj 64 20 inlet;
#X obj 71 250 outlet;
#X msg 103 143 set obj \$1 \$2 outlet;
#X obj 64 46 t b a b;
#X connect 0 0 2 0;
#X connect 1 0 4 0;
#X connect 3 0 2 0;
#X connect 4 0 2 0;
#X connect 4 1 3 0;
#X connect 4 2 0 0;
#X restore 36 223 pd create-outlet;
#X obj 36 198 pack f f;
#X obj 36 1 inlet;
#X obj 63 48 \$1;
#X obj 36 25 t b b;
#X obj 36 132 for++ 0;
#X obj 36 441 outlet;
#X obj 231 142 for++ 0;
#X msg 281 104 500;
#X obj 36 159 expr ($f1*80) \; (($f2*2)*30)+120;
#X obj 90 96 - 1;
#X obj 231 163 t f f;
#X obj 228 247 pack f f;
#X msg 243 296 set connect \$1 0 \$2 0;
#X obj 227 271 t b a;
#X obj 230 197 expr 2*($f1)+4 \; $f1+($f2*2+4);
#X msg 455 272 set connect 1 0 3 0;
#X obj 63 74 t f f;
#X obj 421 286 \$1;
#X obj 404 248 t b b b b;
#X msg 421 329 set connect 2 0 \$1 1;
#X obj 421 308 expr ($f1*2+3);
#X connect 0 0 7 0;
#X connect 1 0 0 0;
#X connect 2 0 1 0;
#X connect 3 0 5 0;
#X connect 4 0 18 0;
#X connect 5 0 6 0;
#X connect 5 1 4 0;
#X connect 6 0 10 0;
#X connect 6 1 8 0;
#X connect 8 0 12 0;
#X connect 8 1 20 0;
#X connect 9 0 8 2;
#X connect 10 0 2 0;
#X connect 10 1 2 1;
#X connect 11 0 8 1;
#X connect 11 0 6 1;
#X connect 12 0 16 0;
#X connect 13 0 15 0;
#X connect 14 0 0 0;
#X connect 15 0 0 0;
#X connect 15 1 14 0;
#X connect 16 0 13 0;
#X connect 16 1 13 1;
#X connect 17 0 0 0;
#X connect 18 0 10 1;
#X connect 18 0 16 1;
#X connect 18 1 11 0;
#X connect 19 0 22 0;
#X connect 20 0 0 0;
#X connect 20 1 19 0;
#X connect 20 2 0 0;
#X connect 20 3 17 0;
#X connect 21 0 0 0;
#X connect 22 0 21 0;
#X restore 115 80 pd connect-string;
#X connect 1 0 4 0;
#X connect 2 0 5 0;
#X connect 3 0 4 0;
#X connect 4 0 0 0;
#X connect 4 1 2 0;
#X connect 5 0 0 0;
#X restore 81 2 pd main;
#X obj -2 2 inlet;
#X obj 39 2 inlet;
