#N canvas 0 0 450 300 10;
#X obj 68 105 osc~ \$1;
#X obj 145 53 inlet;
#X obj 72 152 *~;
#X obj 73 298 outlet~;
#X obj 122 152 +~;
#X obj 122 182 *~ 0.5;
#X obj 73 197 +~;
#X obj 72 235 *~ 0.5;
#X obj 99 52 inlet~;
#X obj 73 272 *~ \$2;
#X obj 145 75 route freq amp;
#X connect 0 0 2 0;
#X connect 0 0 4 1;
#X connect 1 0 10 0;
#X connect 2 0 6 0;
#X connect 4 0 5 0;
#X connect 5 0 6 1;
#X connect 6 0 7 0;
#X connect 7 0 9 0;
#X connect 8 0 4 0;
#X connect 8 0 2 1;
#X connect 9 0 3 0;
#X connect 10 0 0 0;
#X connect 10 1 9 1;
