#N canvas 487 96 450 300 10;
#X obj 62 90 osc~ \$1;
#X obj 62 59 inlet;
#X obj 128 57 inlet;
#X obj 63 262 *~ \$3;
#X obj 62 142 *~;
#X obj 63 288 outlet~;
#X obj 112 142 +~;
#X obj 234 156 inlet;
#X obj 112 172 *~ 0.5;
#X obj 63 187 +~;
#X obj 128 90 osc~ \$2;
#X obj 62 225 *~ 0.5;
#X connect 0 0 4 0;
#X connect 0 0 6 0;
#X connect 1 0 0 0;
#X connect 2 0 10 0;
#X connect 3 0 5 0;
#X connect 4 0 9 0;
#X connect 6 0 8 0;
#X connect 7 0 3 1;
#X connect 8 0 9 1;
#X connect 9 0 11 0;
#X connect 10 0 4 1;
#X connect 10 0 6 1;
#X connect 11 0 3 0;
