#N canvas 524 37 450 444 10;
#X obj 22 173 am.allband.with.signal 440 0.5;
#X obj 22 203 ../mono.gram;
#X obj 22 417 dac~;
#X obj 21 137 ../waveforms/waveform.lf.square~ 12 70 0.71;
#X msg 21 114 freq \$1;
#X floatatom 21 87 5 0 0 0 - - -;
#X connect 0 0 1 0;
#X connect 1 0 2 0;
#X connect 1 0 2 1;
#X connect 3 0 0 0;
#X connect 4 0 3 0;
#X connect 5 0 4 0;
