#N canvas 247 246 450 300 10;
#X obj 106 93 ../non_linear/osc.tanh \$2 \$3;
#X obj 48 94 osc~ \$1;
#X obj 48 63 inlet;
#X obj 48 136 *~;
#X obj 43 252 outlet~;
#X obj 106 66 inlet;
#X obj 271 63 inlet;
#X obj 90 137 +~;
#X obj 47 219 *~ \$4;
#X obj 90 159 *~ 0.5;
#X obj 47 188 +~;
#X obj 320 62 inlet;
#X connect 0 0 3 1;
#X connect 0 0 7 1;
#X connect 1 0 3 0;
#X connect 1 0 7 0;
#X connect 2 0 1 0;
#X connect 3 0 10 0;
#X connect 5 0 0 0;
#X connect 6 0 0 1;
#X connect 7 0 9 0;
#X connect 8 0 4 0;
#X connect 9 0 10 1;
#X connect 10 0 8 0;
#X connect 11 0 8 1;
