#N canvas 671 130 473 343 10;
#X obj 14 77 ../mono.gram;
#X obj 192 13 hsl 128 15 0 1 0 0 empty empty empty -2 -8 0 10 -262144
-1 -1 11800 1;
#X obj 20 295 dac~;
#X obj 50 14 hsl 128 15 200 1000 0 0 empty empty empty -2 -8 0 10 -262144
-1 -1 200 1;
#X obj 22 39 am.ring.cheby.4 323 220 1;
#X obj 204 42 hsl 128 15 0 1 0 0 empty empty empty -2 -8 0 10 -262144
-1 -1 400 1;
#X connect 0 0 2 0;
#X connect 0 0 2 1;
#X connect 1 0 4 2;
#X connect 3 0 4 1;
#X connect 4 0 0 0;
#X connect 5 0 4 3;
