#N canvas 671 130 473 343 10;
#X obj 14 77 ../mono.gram;
#X obj 109 -5 hsl 128 15 0 10 0 0 empty empty empty -2 -8 0 10 -262144
-1 -1 1000 1;
#X floatatom 161 20 5 0 0 0 - - -;
#X obj 22 39 am.cheby.4 440 330 1;
#X obj 20 295 dac~;
#X obj 23 18 hsl 128 15 220 330 0 0 empty empty empty -2 -8 0 10 -262144
-1 -1 3800 1;
#X obj 167 43 hsl 128 15 0 1 0 0 empty empty empty -2 -8 0 10 -262144
-1 -1 600 1;
#X connect 0 0 4 0;
#X connect 0 0 4 1;
#X connect 1 0 2 0;
#X connect 1 0 3 2;
#X connect 3 0 0 0;
#X connect 5 0 3 1;
#X connect 6 0 3 2;
