#N canvas 54 51 450 300 10;
#X obj 24 87 ../mono.gram;
#X obj 185 6 hsl 128 15 0 10 0 0 empty empty empty -2 -8 0 10 -262144
-1 -1 700 1;
#X floatatom 237 31 5 0 0 0 - - -;
#X obj 30 305 dac~;
#X obj 274 56 hsl 128 15 0 0.5 0 0 empty empty empty -2 -8 0 10 -262144
-1 -1 0 1;
#X obj 32 49 am.ring.cheby.3 400 300 0.5 0.5;
#X connect 0 0 3 0;
#X connect 0 0 3 1;
#X connect 1 0 2 0;
#X connect 1 0 5 2;
#X connect 4 0 5 3;
#X connect 5 0 0 0;
