#N canvas 62 338 450 300 10;
#X obj 137 39 inlet;
#X obj 74 183 *~ \$3;
#X obj 70 142 *~;
#X obj 71 217 outlet~;
#X obj 139 156 +~;
#X obj 72 69 inlet~;
#X obj 138 99 osc~ \$1;
#X obj 156 127 sig~ \$2;
#X obj 138 61 route modulator index amp;
#X connect 0 0 8 0;
#X connect 1 0 3 0;
#X connect 2 0 1 0;
#X connect 4 0 2 1;
#X connect 5 0 2 0;
#X connect 6 0 4 0;
#X connect 7 0 4 1;
#X connect 8 0 6 0;
#X connect 8 1 7 0;
#X connect 8 2 1 1;
