#N canvas 451 130 491 352 10;
#X obj 17 82 ../mono.gram;
#X obj 243 37 hsl 128 15 0 1 0 0 empty empty empty -2 -8 0 10 -262144
-1 -1 6100 1;
#X obj 18 321 dac~;
#X obj 17 31 am.ringmodulation 440 330 0.9 0.71;
#X connect 0 0 2 1;
#X connect 0 0 2 0;
#X connect 1 0 3 3;
#X connect 3 0 0 0;
