#N canvas 230 101 450 300 10;
#X obj 82 110 osc~ \$1;
#X obj 82 79 inlet;
#X obj 80 152 *~;
#X obj 77 268 outlet~;
#X obj 296 74 inlet index;
#X obj 162 80 inlet carr;
#X obj 159 153 +~;
#X obj 394 76 inlet kindex;
#X obj 190 152 sig~ \$4;
#X obj 80 234 *~ 1;
#X obj 163 108 ../non_linear/chebychev.ninth \$2 \$3;
#X connect 0 0 2 0;
#X connect 1 0 0 0;
#X connect 2 0 9 0;
#X connect 4 0 10 1;
#X connect 5 0 10 0;
#X connect 6 0 2 1;
#X connect 7 0 8 0;
#X connect 8 0 6 1;
#X connect 9 0 3 0;
#X connect 10 0 6 0;
