#N canvas 79 239 450 300 10;
#X obj 106 93 ../non_linear/osc.tanh \$2 \$3;
#X obj 48 94 osc~ \$1;
#X obj 48 63 inlet;
#X obj 46 136 *~;
#X obj 43 252 outlet~;
#X obj 47 179 *~ 0.5;
#X obj 106 66 inlet;
#X obj 271 63 inlet;
#X obj 329 63 inlet;
#X obj 105 131 +~;
#X obj 386 65 inlet;
#X obj 356 123 sig~ \$5;
#X obj 46 218 *~ \$4;
#X connect 0 0 9 0;
#X connect 1 0 3 0;
#X connect 2 0 1 0;
#X connect 3 0 5 0;
#X connect 5 0 12 0;
#X connect 6 0 0 0;
#X connect 7 0 0 1;
#X connect 8 0 12 1;
#X connect 9 0 3 1;
#X connect 10 0 11 0;
#X connect 11 0 9 1;
#X connect 12 0 4 0;
