#N canvas 0 0 450 300 10;
#X obj 62 90 osc~ \$1;
#X obj 62 59 inlet;
#X obj 128 57 inlet;
#X obj 60 214 *~ \$3;
#X obj 200 57 inlet;
#X obj 60 132 *~;
#X obj 57 248 outlet~;
#X obj 61 175 *~ 0.5;
#X obj 128 90 osc~ \$2;
#X connect 0 0 5 0;
#X connect 1 0 0 0;
#X connect 2 0 8 0;
#X connect 3 0 6 0;
#X connect 4 0 3 1;
#X connect 5 0 7 0;
#X connect 7 0 3 0;
#X connect 8 0 5 1;
