#N canvas 553 393 450 300 10;
#X obj 56 250 outlet~;
#X obj 124 21 inlet;
#X obj 56 110 hilbert~;
#X obj 123 107 hilbert~;
#X obj 55 142 *~;
#X obj 102 142 *~;
#X obj 54 177 -~;
#X obj 124 46 route mod index amp;
#X obj 56 44 inlet~;
#X obj 55 212 *~ \$3;
#X obj 124 74 ../non_linear/chebychev.third \$1 \$2;
#X connect 1 0 7 0;
#X connect 2 0 4 0;
#X connect 2 1 5 0;
#X connect 3 0 4 1;
#X connect 3 1 5 1;
#X connect 4 0 6 0;
#X connect 5 0 6 1;
#X connect 6 0 9 0;
#X connect 7 0 10 0;
#X connect 7 1 10 1;
#X connect 7 2 9 1;
#X connect 8 0 2 0;
#X connect 9 0 0 0;
#X connect 10 0 3 0;
