#N canvas 749 273 450 300 10;
#X obj 72 4 inlet;
#X obj 70 224 *~ \$3;
#X obj 69 258 outlet~;
#X obj 136 56 osc~ \$2;
#X obj 72 27 route carrier car modulator mod amplification amp;
#X obj 72 56 sig~ \$1;
#X obj 73 95 hilbert~;
#X obj 140 92 hilbert~;
#X obj 72 127 *~;
#X obj 119 127 *~;
#X obj 71 162 -~;
#X connect 0 0 4 0;
#X connect 1 0 2 0;
#X connect 3 0 7 0;
#X connect 4 0 5 0;
#X connect 4 1 5 0;
#X connect 4 2 3 0;
#X connect 4 3 3 0;
#X connect 4 4 1 1;
#X connect 4 5 1 1;
#X connect 5 0 6 0;
#X connect 6 0 8 0;
#X connect 6 1 9 0;
#X connect 7 0 8 1;
#X connect 7 1 9 1;
#X connect 8 0 10 0;
#X connect 9 0 10 1;
#X connect 10 0 1 0;
