#N canvas 18 63 503 472 10;
#X obj 15 217 ../mono.gram;
#X obj 15 427 dac~;
#X obj 17 31 am.sidebands 440 330 0.71;
#X obj 194 31 am.sidebands 440 330 0.71;
#X obj 167 7 hsl 128 15 0 127 0 0 empty empty empty -2 -8 0 10 -262144
-1 -1 12700 1;
#X obj 344 7 hsl 128 15 0 127 0 0 empty empty empty -2 -8 0 10 -262144
-1 -1 0 1;
#X obj 18 80 *~;
#X connect 0 0 1 1;
#X connect 0 0 1 0;
#X connect 2 0 6 0;
#X connect 3 0 6 1;
#X connect 4 0 2 2;
#X connect 5 0 3 2;
#X connect 6 0 0 0;
