#N canvas 397 30 791 425 10;
#X obj 30 356 dac~;
#X obj 28 132 ../mono.gram;
#X obj 535 5 hsl 128 15 0 1.5 0 0 empty empty empty -2 -8 0 10 -262144
-1 -1 4800 1;
#X msg 533 32 index \$1;
#X obj 390 3 hsl 128 15 1 300 0 0 empty empty empty -2 -8 0 10 -262144
-1 -1 7900 1;
#X msg 388 30 mod \$1;
#X floatatom 441 27 5 0 0 0 - - -;
#X obj 128 35 ../waveforms/waveform.lf.square~ 110 70 1;
#X obj 27 92 am.singlebands.cheby.3.with.signal 113 0.1 0.71;
#X obj 27 35 osc~ 110;
#X obj 28 64 ../signal.choice~;
#X obj 92 34 tgl 15 0 empty empty empty 17 7 0 10 -262144 -1 -1 0 1
;
#X connect 1 0 0 0;
#X connect 1 0 0 1;
#X connect 2 0 3 0;
#X connect 3 0 8 1;
#X connect 4 0 5 0;
#X connect 4 0 6 0;
#X connect 5 0 8 1;
#X connect 7 0 10 1;
#X connect 8 0 1 0;
#X connect 9 0 10 0;
#X connect 10 0 8 0;
#X connect 11 0 10 2;
