#N canvas 0 0 450 300 10;
#X obj 58 32 inlet;
#X obj 60 214 *~ \$3;
#X obj 60 132 *~;
#X obj 57 248 outlet~;
#X obj 61 175 *~ 0.5;
#X obj 118 86 osc~ \$2;
#X obj 58 87 osc~ \$1;
#X obj 58 55 route car mod amp;
#X connect 0 0 7 0;
#X connect 1 0 3 0;
#X connect 2 0 4 0;
#X connect 4 0 1 0;
#X connect 5 0 2 1;
#X connect 6 0 2 0;
#X connect 7 0 6 0;
#X connect 7 1 5 0;
#X connect 7 2 1 1;
