#N canvas 2 360 450 300 10;
#X obj 48 -14 inlet;
#X obj 46 240 outlet~;
#X obj 46 100 hilbert~;
#X obj 113 97 hilbert~;
#X obj 45 132 *~;
#X obj 92 132 *~;
#X obj 44 167 -~;
#X obj 46 65 sig~ \$1;
#X obj 114 64 ../non_linear/chebychev.third \$2 \$4;
#X obj 45 202 *~ \$3;
#X obj 50 14 route car mod amp index;
#X connect 0 0 10 0;
#X connect 2 0 4 0;
#X connect 2 1 5 0;
#X connect 3 0 4 1;
#X connect 3 1 5 1;
#X connect 4 0 6 0;
#X connect 5 0 6 1;
#X connect 6 0 9 0;
#X connect 7 0 2 0;
#X connect 8 0 3 0;
#X connect 9 0 1 0;
#X connect 10 0 7 0;
#X connect 10 1 8 0;
#X connect 10 2 9 1;
#X connect 10 3 8 1;
