#N canvas 477 329 450 300 10;
#X obj 46 65 osc~ \$1;
#X obj 46 34 inlet;
#X obj 46 240 outlet~;
#X obj 114 37 inlet;
#X obj 278 37 inlet;
#X obj 350 38 inlet;
#X obj 45 202 *~ \$4;
#X obj 46 100 hilbert~;
#X obj 113 97 hilbert~;
#X obj 45 132 *~;
#X obj 92 132 *~;
#X obj 44 167 -~;
#X obj 114 63 ../non_linear/chebychev.sixth \$2 \$3;
#X connect 0 0 7 0;
#X connect 1 0 0 0;
#X connect 3 0 12 0;
#X connect 4 0 12 1;
#X connect 5 0 6 1;
#X connect 6 0 2 0;
#X connect 7 0 9 0;
#X connect 7 1 10 0;
#X connect 8 0 9 1;
#X connect 8 1 10 1;
#X connect 9 0 11 0;
#X connect 10 0 11 1;
#X connect 11 0 6 0;
#X connect 12 0 8 0;
