#N canvas 451 130 491 352 10;
#X obj 17 82 ../mono.gram;
#X obj 17 31 am.sidebands 440 330 0.71;
#X obj 189 30 hsl 128 15 0 1 0 0 empty empty empty -2 -8 0 10 -262144
-1 -1 0 1;
#X obj 18 294 dac~;
#X connect 0 0 3 0;
#X connect 0 0 3 1;
#X connect 1 0 0 0;
#X connect 2 0 1 2;
