#N canvas 163 216 538 335 10;
#X obj 46 65 osc~ \$1;
#X obj 46 34 inlet;
#X obj 46 249 outlet~;
#X obj 114 37 inlet;
#X obj 157 40 inlet;
#X obj 350 38 inlet;
#X obj 46 167 +~;
#N canvas 604 296 450 300 hilbert 0;
#X obj 22 45 hilbert~;
#X obj 89 46 hilbert~;
#X obj 21 81 *~;
#X obj 68 81 *~;
#X obj 20 116 -~;
#X obj 20 140 *~ 0.5;
#X obj 22 15 inlet~;
#X obj 89 16 inlet~;
#X obj 21 171 outlet~;
#X connect 0 0 2 0;
#X connect 0 1 3 0;
#X connect 1 0 2 1;
#X connect 1 1 3 1;
#X connect 2 0 4 0;
#X connect 3 0 4 1;
#X connect 4 0 5 0;
#X connect 5 0 8 0;
#X connect 6 0 0 0;
#X connect 7 0 1 0;
#X restore 62 107 pd hilbert;
#X obj 47 198 *~ \$5;
#X obj 405 37 inlet;
#X obj 114 64 ../non_linear/osc.tanh \$2 \$4;
#X obj 45 140 *~ \$3;
#X connect 0 0 7 0;
#X connect 0 0 11 0;
#X connect 1 0 0 0;
#X connect 3 0 10 0;
#X connect 4 0 11 1;
#X connect 5 0 10 1;
#X connect 6 0 8 0;
#X connect 7 0 6 1;
#X connect 8 0 2 0;
#X connect 9 0 8 1;
#X connect 10 0 7 1;
#X connect 11 0 6 0;
