#N canvas 350 234 450 300 10;
#X obj 115 41 inlet;
#X obj 70 109 *~;
#X obj 69 224 outlet~;
#X obj 71 152 *~ 0.5;
#X obj 69 41 inlet~;
#X obj 115 66 route mod amp;
#X obj 115 93 osc~ \$1;
#X obj 70 191 *~ \$2;
#X connect 0 0 5 0;
#X connect 1 0 3 0;
#X connect 3 0 7 0;
#X connect 4 0 1 0;
#X connect 5 0 6 0;
#X connect 5 1 7 1;
#X connect 6 0 1 1;
#X connect 7 0 2 0;
