#N canvas 534 54 450 298 10;
#X obj 46 65 osc~ \$1;
#X obj 46 240 outlet~;
#X obj 46 -19 inlet;
#X obj 45 202 *~ \$4;
#X obj 46 100 hilbert~;
#X obj 113 97 hilbert~;
#X obj 45 132 *~;
#X obj 92 132 *~;
#X obj 44 167 -~;
#X obj 114 64 ../non_linear/chebychev.third \$2 \$3;
#X obj 46 6 route car mod index amp;
#X connect 0 0 4 0;
#X connect 2 0 10 0;
#X connect 3 0 1 0;
#X connect 4 0 6 0;
#X connect 4 1 7 0;
#X connect 5 0 6 1;
#X connect 5 1 7 1;
#X connect 6 0 8 0;
#X connect 7 0 8 1;
#X connect 8 0 3 0;
#X connect 9 0 5 0;
#X connect 10 0 0 0;
#X connect 10 1 9 0;
#X connect 10 2 9 1;
#X connect 10 3 3 1;
