#N canvas 636 101 450 300 10;
#X obj 72 25 inlet;
#X obj 70 224 *~ \$3;
#X obj 70 142 *~;
#X obj 69 258 outlet~;
#X obj 71 185 *~ 0.5;
#X obj 138 100 osc~ \$2;
#X obj 72 48 route carrier car modulator mod amplification amp;
#X obj 71 100 sig~ \$1;
#X connect 0 0 6 0;
#X connect 1 0 3 0;
#X connect 2 0 4 0;
#X connect 4 0 1 0;
#X connect 5 0 2 1;
#X connect 6 0 7 0;
#X connect 6 1 7 0;
#X connect 6 2 5 0;
#X connect 6 3 5 0;
#X connect 6 4 1 1;
#X connect 6 5 1 1;
#X connect 7 0 2 0;
