#N canvas 545 94 791 425 10;
#X obj 30 356 dac~;
#X obj 28 132 ../mono.gram;
#X obj 110 43 hsl 128 15 0 10000 0 0 empty empty empty -2 -8 0 10 -262144
-1 -1 400 1;
#X obj 150 65 hsl 128 15 0 10000 0 0 empty empty empty -2 -8 0 10 -262144
-1 -1 0 1;
#X obj 311 56 hsl 128 15 0 1 0 0 empty empty empty -2 -8 0 10 -262144
-1 -1 11700 1;
#X floatatom 28 58 5 0 0 0 - - -;
#X floatatom 207 99 5 0 0 0 - - -;
#X floatatom 114 69 5 0 0 0 - - -;
#X obj 27 93 fm.cheby.5 440 330 10 0.5 1;
#X connect 1 0 0 0;
#X connect 1 0 0 1;
#X connect 2 0 7 0;
#X connect 2 0 8 2;
#X connect 3 0 6 0;
#X connect 3 0 8 3;
#X connect 4 0 8 4;
#X connect 5 0 8 0;
#X connect 8 0 1 0;
