#N canvas 273 71 450 300 10;
#X obj 30 44 osc~ \$2;
#X obj 34 142 +~;
#X obj 30 109 *~ \$3;
#X obj 28 17 inlet;
#X obj 84 17 inlet;
#X obj 134 19 inlet;
#X obj 35 169 osc~;
#X obj 185 18 inlet;
#X obj 33 269 outlet~;
#X obj 34 197 *~ \$5;
#X obj 231 18 inlet;
#X obj 35 246 hip~ 5;
#X obj 85 108 ../non_linear/chebychev.octave \$1 \$4;
#X connect 0 0 2 0;
#X connect 1 0 6 0;
#X connect 2 0 1 0;
#X connect 3 0 12 0;
#X connect 4 0 0 0;
#X connect 5 0 2 1;
#X connect 6 0 9 0;
#X connect 7 0 12 1;
#X connect 9 0 11 0;
#X connect 10 0 9 1;
#X connect 11 0 8 0;
#X connect 12 0 1 1;
