#N canvas -3 373 450 300 10;
#X obj 30 44 osc~ \$2;
#X obj 31 75 *~ \$3;
#X obj 28 17 inlet;
#X obj 84 17 inlet;
#X obj 134 19 inlet;
#X obj 30 168 osc~;
#X obj 185 18 inlet;
#X obj 33 286 outlet~;
#X obj 31 194 *~ \$5;
#X obj 231 18 inlet;
#X obj 85 108 ../non_linear/chebychev.third \$1 \$4;
#X obj 30 136 +~;
#X obj 33 226 hip~ 5;
#X connect 0 0 1 0;
#X connect 1 0 11 0;
#X connect 2 0 10 0;
#X connect 3 0 0 0;
#X connect 4 0 1 1;
#X connect 5 0 8 0;
#X connect 6 0 10 1;
#X connect 8 0 12 0;
#X connect 9 0 8 1;
#X connect 10 0 11 1;
#X connect 11 0 5 0;
#X connect 12 0 7 0;
