#N canvas 500 132 450 295 10;
#X obj 20 34 osc~ \$2;
#X obj 21 156 +~;
#X obj 20 99 *~ \$3;
#X obj 75 99 sig~ \$1;
#X obj 18 7 inlet;
#X obj 74 7 inlet;
#X obj 124 9 inlet;
#X obj 21 187 osc~;
#X obj 21 218 *~ \$4;
#X obj 175 8 inlet;
#X obj 21 244 outlet~;
#X connect 0 0 2 0;
#X connect 1 0 7 0;
#X connect 2 0 1 0;
#X connect 3 0 1 1;
#X connect 4 0 3 0;
#X connect 5 0 0 0;
#X connect 6 0 2 1;
#X connect 7 0 8 0;
#X connect 8 0 10 0;
#X connect 9 0 8 1;
