#N canvas 545 94 791 425 10;
#X obj 30 356 dac~;
#X obj 28 132 ../mono.gram;
#X obj 110 43 hsl 128 15 20 10000 0 0 empty empty empty -2 -8 0 10
-262144 -1 -1 1100 1;
#X obj 150 65 hsl 128 15 0 10000 0 0 empty empty empty -2 -8 0 10 -262144
-1 -1 0 1;
#X obj 207 94 hsl 128 15 0 1 0 0 empty empty empty -2 -8 0 10 -262144
-1 -1 9900 1;
#X floatatom 28 58 5 0 0 0 - - -;
#X obj 28 93 fm.tanh 440 123 300 50 0.5;
#X connect 1 0 0 0;
#X connect 1 0 0 1;
#X connect 2 0 6 2;
#X connect 3 0 6 3;
#X connect 4 0 6 4;
#X connect 5 0 6 0;
#X connect 6 0 1 0;
