#N canvas 40 73 450 300 10;
#X obj 30 44 osc~ \$2;
#X obj 31 166 +~;
#X obj 30 109 *~ \$3;
#X obj 28 17 inlet;
#X obj 84 17 inlet;
#X obj 134 19 inlet;
#X obj 31 197 osc~;
#X obj 185 18 inlet;
#X obj 31 254 outlet~;
#X obj 85 108 ../non_linear/osc.tanh \$1 \$4;
#X obj 31 228 *~ \$5;
#X obj 231 18 inlet;
#X connect 0 0 2 0;
#X connect 1 0 6 0;
#X connect 2 0 1 0;
#X connect 3 0 9 0;
#X connect 4 0 0 0;
#X connect 5 0 2 1;
#X connect 6 0 10 0;
#X connect 7 0 9 1;
#X connect 9 0 1 1;
#X connect 10 0 8 0;
#X connect 11 0 10 1;
