#N canvas 649 78 688 350 10;
#X obj 43 275 outlet~;
#X obj 3 -3 inlet;
#X msg -7 55 1;
#X msg 22 56 0;
#X msg 4 172 car \$1;
#N canvas 474 308 450 300 beeper 0;
#X obj 4 116 f 0;
#X obj 36 116 + 1;
#X obj 4 90 metro \$1;
#X floatatom 54 155 5 0 0 0 - - -;
#X obj 4 18 inlet;
#X obj 5 176 outlet;
#X obj 50 18 inlet;
#X obj 5 139 mod 2;
#X connect 0 0 1 0;
#X connect 0 0 7 0;
#X connect 1 0 0 1;
#X connect 2 0 0 0;
#X connect 4 0 2 0;
#X connect 6 0 2 1;
#X connect 7 0 3 0;
#X connect 7 0 5 0;
#X restore -7 128 pd beeper;
#X msg 55 173 mod \$1;
#X msg 104 173 amp \$1;
#X obj 3 241 spigot~;
#X obj -7 81 t f f;
#X msg 154 173 index \$1;
#X obj 104 135 / 31.4159;
#X text 285 3 # Beep.pd In Farnnel´ esign considerations about beep
sound \, he describe that real beep sound have some partials \, because
the transducer and ressonations of equipement;
#X text 285 47 generate them. I applied some special am process to
generate some partials;
#X obj -7 33 route on off metro freq amp index;
#X floatatom 55 147 5 0 0 0 - - -;
#X floatatom 2 150 5 0 0 0 - - -;
#X floatatom 116 152 5 0 0 0 - - -;
#X obj 227 0 loadbang;
#X obj 217 95 \$2;
#X obj 268 102 \$3;
#X obj 4 212 ../../modulation/am.singlebands.tanh.sig 1 \$2 0;
#X connect 1 0 14 0;
#X connect 2 0 9 0;
#X connect 3 0 9 0;
#X connect 4 0 21 0;
#X connect 5 0 4 0;
#X connect 5 0 16 0;
#X connect 6 0 21 0;
#X connect 7 0 21 0;
#X connect 8 1 0 0;
#X connect 9 0 5 0;
#X connect 9 1 8 1;
#X connect 10 0 21 0;
#X connect 11 0 7 0;
#X connect 11 0 17 0;
#X connect 14 0 2 0;
#X connect 14 1 3 0;
#X connect 14 2 5 1;
#X connect 14 3 15 0;
#X connect 14 4 11 0;
#X connect 14 5 10 0;
#X connect 15 0 6 0;
#X connect 18 0 19 0;
#X connect 18 0 20 0;
#X connect 19 0 15 0;
#X connect 20 0 11 0;
#X connect 21 0 8 0;
