#N canvas 239 22 804 670 10;
#X msg 11 -4 on;
#X msg 39 -4 off;
#X obj 11 466 dac~;
#X obj 12 19 beep 100 500 1;
#X msg 146 -5 freq 300;
#X msg 73 -4 metro 200;
#X msg 272 -5 index 1.9;
#X msg 215 -4 amp 0.9;
#X obj 12 49 ../../mono.gram;
#X obj 12 257 ../../env.maker 10000;
#X connect 0 0 3 0;
#X connect 1 0 3 0;
#X connect 3 0 8 0;
#X connect 4 0 3 0;
#X connect 5 0 3 0;
#X connect 6 0 3 0;
#X connect 7 0 3 0;
#X connect 8 0 9 0;
#X connect 9 0 2 0;
#X connect 9 0 2 1;
