#N canvas 65 54 1215 746 10;
#X obj 0 35 delwrite~ \$0-delay_0 325;
#X obj 0 100 delread~ \$0-delay_0 325;
#X obj 80 70 *~ 0.54;
#X obj 160 35 delwrite~ \$0-delay_1 300;
#X obj 160 100 delread~ \$0-delay_1 300;
#X obj 220 70 *~ 0.54;
#X obj 320 35 delwrite~ \$0-delay_2 275;
#X obj 320 100 delread~ \$0-delay_2 275;
#X obj 360 70 *~ 0.54;
#X obj 480 35 delwrite~ \$0-delay_3 250;
#X obj 480 100 delread~ \$0-delay_3 250;
#X obj 500 70 *~ 0.54;
#X obj 640 35 delwrite~ \$0-delay_4 225;
#X obj 640 100 delread~ \$0-delay_4 225;
#X obj 640 70 *~ 0.54;
#X obj 800 35 delwrite~ \$0-delay_5 200;
#X obj 800 100 delread~ \$0-delay_5 200;
#X obj 780 70 *~ 0.54;
#X obj 960 35 delwrite~ \$0-delay_6 175;
#X obj 960 100 delread~ \$0-delay_6 175;
#X obj 920 70 *~ 0.54;
#X obj 1120 35 delwrite~ \$0-delay_7 150;
#X obj 1120 100 delread~ \$0-delay_7 150;
#X obj 1060 70 *~ 0.54;
#X obj 1280 35 delwrite~ \$0-delay_8 125;
#X obj 1280 100 delread~ \$0-delay_8 125;
#X obj 1200 70 *~ 0.54;
#X obj 1440 35 delwrite~ \$0-delay_9 100;
#X obj 1440 100 delread~ \$0-delay_9 100;
#X obj 1340 70 *~ 0.54;
#X obj 1600 35 delwrite~ \$0-delay_10 75;
#X obj 1600 100 delread~ \$0-delay_10 75;
#X obj 1480 70 *~ 0.54;
#X obj 1760 35 delwrite~ \$0-delay_11 50;
#X obj 1760 100 delread~ \$0-delay_11 50;
#X obj 1620 70 *~ 0.54;
#X obj 1920 35 delwrite~ \$0-delay_12 25;
#X obj 1920 100 delread~ \$0-delay_12 25;
#X obj 1760 70 *~ 0.54;
#X obj 0 200 dac~;
#X obj 0 -3 adc~;
#X connect 1 0 2 0;
#X connect 2 0 3 0;
#X connect 4 0 5 0;
#X connect 5 0 6 0;
#X connect 7 0 8 0;
#X connect 8 0 9 0;
#X connect 10 0 11 0;
#X connect 11 0 12 0;
#X connect 13 0 14 0;
#X connect 14 0 15 0;
#X connect 16 0 17 0;
#X connect 17 0 18 0;
#X connect 19 0 20 0;
#X connect 20 0 21 0;
#X connect 22 0 23 0;
#X connect 23 0 24 0;
#X connect 25 0 26 0;
#X connect 26 0 27 0;
#X connect 28 0 29 0;
#X connect 29 0 30 0;
#X connect 31 0 32 0;
#X connect 32 0 33 0;
#X connect 34 0 35 0;
#X connect 35 0 36 0;
#X connect 37 0 38 0;
#X connect 38 0 0 0;
#X connect 38 0 39 0;
#X connect 40 0 0 0;
