#N canvas 330 76 478 312 10;
#N canvas 185 368 450 300 init 0;
#N canvas 683 180 517 343 create_delwarites 0;
#X obj 44 58 for++ 1 \$1;
#X obj 48 13 loadbang;
#X obj 49 35 t b b;
#X obj 297 86 \$2;
#X obj 41 83 t f f f;
#X obj 135 332 s pd-delayorama.pd;
#X obj 16 23 bng 15 250 50 0 empty empty empty 17 7 0 10 -262144 -1
-1;
#X obj 41 135 expr ($f1+1)*10 \; ($f1+1)*20;
#X floatatom 131 75 5 0 0 0 - - -;
#X obj 41 186 pack f f s f;
#X floatatom 217 186 5 0 0 0 - - -;
#X obj 41 331 print Created:;
#X obj 78 111 makesymbol \$0-delay_%s;
#X obj 41 210 t b a;
#X obj 227 112 expr $f1*$f2;
#X msg 40 292 obj 10 20 delwrite~ 1009-delay_0 0;
#X msg 61 257 set obj \$1 \$2 delwrite~ \$3 \$4;
#X connect 0 0 4 0;
#X connect 1 0 2 0;
#X connect 2 0 0 0;
#X connect 2 1 3 0;
#X connect 3 0 14 1;
#X connect 4 0 7 0;
#X connect 4 1 12 0;
#X connect 4 2 14 0;
#X connect 6 0 2 0;
#X connect 7 0 9 0;
#X connect 7 1 9 1;
#X connect 8 0 12 0;
#X connect 9 0 13 0;
#X connect 12 0 9 2;
#X connect 13 0 15 0;
#X connect 13 1 16 0;
#X connect 14 0 9 3;
#X connect 14 0 10 0;
#X connect 15 0 11 0;
#X connect 15 0 5 0;
#X connect 16 0 15 0;
#X restore 125 52 pd create_delwarites;
#N canvas 382 235 450 300 create_delreads 0;
#X obj 54 68 for++ 1 \$1;
#X obj 58 23 loadbang;
#X obj 59 45 t b b;
#X obj 307 96 \$2;
#X obj 51 93 t f f f;
#X obj 145 342 s pd-delayorama.pd;
#X obj 26 33 bng 15 250 50 0 empty empty empty 17 7 0 10 -262144 -1
-1;
#X floatatom 141 85 5 0 0 0 - - -;
#X obj 51 196 pack f f s f;
#X obj 51 341 print Created:;
#X obj 88 121 makesymbol \$0-delay_%s;
#X obj 51 220 t b a;
#X msg 71 267 set obj \$1 \$2 delread~ \$3 \$4;
#X msg 50 302 obj 240 20 delread~ 1009-delay_0 0;
#X obj 237 122 expr $f1*$f2;
#X obj 51 145 expr 230+(($f1+1)*10) \; ($f1+1)*20;
#X connect 0 0 4 0;
#X connect 1 0 2 0;
#X connect 2 0 0 0;
#X connect 2 1 3 0;
#X connect 3 0 14 1;
#X connect 4 0 15 0;
#X connect 4 1 10 0;
#X connect 4 2 14 0;
#X connect 6 0 2 0;
#X connect 7 0 10 0;
#X connect 8 0 11 0;
#X connect 10 0 8 2;
#X connect 11 0 13 0;
#X connect 11 1 12 0;
#X connect 12 0 13 0;
#X connect 13 0 9 0;
#X connect 13 0 5 0;
#X connect 14 0 8 3;
#X connect 15 0 8 0;
#X connect 15 1 8 1;
#X restore 6 52 pd create_delreads;
#N canvas 382 235 450 300 create_lets 0;
#X obj 40 212 print;
#X obj 48 13 loadbang;
#X obj 102 218 s pd-delayorama.pd;
#X obj 16 23 bng 15 250 50 0 empty empty empty 17 7 0 10 -262144 -1
-1;
#X msg 40 186 obj 0 0 inlet~;
#X obj 220 216 print;
#X obj 282 222 s pd-delayorama.pd;
#X msg 220 190 obj 0 250 outlet~;
#X connect 1 0 4 0;
#X connect 1 0 7 0;
#X connect 3 0 4 0;
#X connect 3 0 7 0;
#X connect 4 0 0 0;
#X connect 4 0 2 0;
#X connect 7 0 5 0;
#X connect 7 0 6 0;
#X restore 252 51 pd create_lets;
#X restore 2 271 pd init;
#X obj 0 0 inlet~;
#X obj 0 250 outlet~;
#X obj 0 0 inlet~;
#X obj 0 250 outlet~;
