#N canvas 229 217 478 312 10;
#X obj -4 9 inlet~;
#X obj -9 247 outlet~;
#X obj 52 249 outlet~;
#X obj 312 165 shell;
#X obj 183 69 \$1;
#X obj 218 71 \$2;
#X obj 148 293 s pd-delayorama.pd;
#X msg 149 196 obj 0 50 ./_delay~ \; connect 0 1 13 0;
#X obj 341 191 bng 15 250 50 0 empty empty empty 17 7 0 10 -262144
-1 -1;
#X obj 183 95 pack f f f;
#X obj 256 70 \$3;
#X obj 149 6 loadbang;
#X obj 149 33 t b b b b;
#X msg 119 138 rm ./fx/_delay~.pd;
#X obj 236 22 bng 15 250 50 0 empty empty empty 17 7 0 10 -262144 -1
-1;
#X floatatom 289 84 5 0 0 0 - - -;
#X msg 232 118 python ./delayorama.py -r \$1 -m \$2 -d 0.71;
#X obj 314 233 print;
#X connect 0 0 1 0;
#X connect 3 0 17 0;
#X connect 3 1 8 0;
#X connect 4 0 9 0;
#X connect 5 0 9 1;
#X connect 7 0 6 0;
#X connect 9 0 16 0;
#X connect 10 0 9 2;
#X connect 10 0 15 0;
#X connect 11 0 12 0;
#X connect 12 0 4 0;
#X connect 12 1 5 0;
#X connect 12 2 10 0;
#X connect 12 3 13 0;
#X connect 13 0 3 0;
#X connect 14 0 12 0;
#X connect 16 0 3 0;
