#N canvas 229 217 478 312 10;
#X obj -4 9 inlet~;
#X obj -9 247 outlet~;
#X obj 166 173 shell;
#X obj 149 11 loadbang;
#X obj 183 95 pack f f;
#X obj 183 69 \$1;
#X obj 218 71 \$2;
#X obj 149 33 t b b b b;
#X msg 149 196 obj 0 50 ./_delay;
#X obj 149 223 s pd-delayorama.pd;
#X msg 166 138 python delayorama.py -r \$1 -m \$2 -d 0.71;
#X obj 51 99 ./_delay~;
#X obj 52 249 outlet~;
#X connect 0 0 11 0;
#X connect 0 0 1 0;
#X connect 4 0 10 0;
#X connect 5 0 4 0;
#X connect 6 0 4 1;
#X connect 7 0 8 0;
#X connect 7 1 10 0;
#X connect 7 2 5 0;
#X connect 7 3 6 0;
#X connect 8 0 9 0;
#X connect 10 0 2 0;
#X connect 11 0 12 0;
