#N canvas 229 217 478 312 10;
#X obj -4 9 inlet~;
#X obj -9 247 outlet~;
#X obj 166 173 shell;
#X obj 183 95 pack f f;
#X obj 183 69 \$1;
#X obj 218 71 \$2;
#X obj 149 33 t b b b b;
#X obj 148 293 s pd-delayorama.pd;
#X msg 166 138 python delayorama.py -r \$1 -m \$2 -d 0.71;
#X obj 52 249 outlet~;
#X obj 99 104 del 100;
#X msg 149 196 obj 0 50 ./_delay~ \; connect 0 1 13 0;
#X obj 101 28 bng 15 250 50 0 empty empty empty 17 7 0 10 -262144 -1
-1;
#X obj 57 8 inlet;
#X connect 0 0 1 0;
#X connect 3 0 8 0;
#X connect 4 0 3 0;
#X connect 5 0 3 1;
#X connect 6 0 10 0;
#X connect 6 1 8 0;
#X connect 6 2 4 0;
#X connect 6 3 5 0;
#X connect 8 0 2 0;
#X connect 10 0 11 0;
#X connect 11 0 7 0;
#X connect 12 0 6 0;
#X connect 13 0 12 0;
