#N canvas 816 22 730 403 10;
#X obj 35 400 outlet;
#X obj 35 366 pack f f f f f;
#X obj 27 8 inlet;
#X obj 28 197 ./tendency \$1 \$2;
#X obj 57 230 ./tendency \$3 \$4;
#X obj 88 269 ./tendency \$5 \$6;
#X obj 157 341 ./tendency \$9 \$10;
#X obj 28 34 t b b b b b;
#X obj 130 308 ./tendency \$7 \$8;
#X connect 1 0 0 0;
#X connect 2 0 7 0;
#X connect 3 0 1 0;
#X connect 4 0 1 1;
#X connect 5 0 1 2;
#X connect 6 0 1 4;
#X connect 7 0 3 0;
#X connect 7 1 4 0;
#X connect 7 2 5 0;
#X connect 7 3 8 0;
#X connect 7 4 6 0;
#X connect 8 0 1 3;
