#N canvas 673 332 450 300 10;
#X obj 20 103 expr~ $v1*0.77 + $v2*0.77;
#X obj 188 102 expr~ $v1*0.77 + $v2*0.77;
#X obj 19 127 pre-reverb~ \$1 \$2 \$3 \$4 \$5;
#X obj 187 126 pre-reverb~ \$1 \$2 \$3 \$3 \$4 \$5;
#X obj 23 39 inlet~;
#X obj 74 38 inlet~;
#X obj 191 39 inlet~;
#X obj 242 38 inlet~;
#X obj 18 159 expr~ $v1*0.77 + $v2*0.77;
#X obj 186 158 expr~ $v1*0.77 + $v2*0.77;
#X obj 22 191 outlet~;
#X obj 185 193 outlet~;
#X connect 0 0 2 0;
#X connect 1 0 3 0;
#X connect 2 0 8 0;
#X connect 2 1 9 0;
#X connect 3 0 8 1;
#X connect 3 1 9 1;
#X connect 4 0 0 0;
#X connect 5 0 0 1;
#X connect 6 0 1 0;
#X connect 7 0 1 1;
#X connect 8 0 10 0;
#X connect 9 0 11 0;
