#N canvas 13 22 1267 713 10;
#X obj 128 48 bng 15 250 50 0 empty empty empty 17 7 0 10 -262144 -1
-1;
#X obj 147 48 bng 15 250 50 0 empty empty empty 17 7 0 10 -262144 -1
-1;
#X obj 170 47 bng 15 250 50 0 empty empty empty 17 7 0 10 -262144 -1
-1;
#X obj 130 106 ./drum~;
#X obj 74 -43 key;
#X floatatom 71 -13 5 0 0 0 - - -;
#X text 148 23 X;
#X text 169 23 C;
#X text 125 25 Z;
#X obj 192 47 bng 15 250 50 0 empty empty empty 17 7 0 10 -262144 -1
-1;
#X msg 391 319 start;
#X msg 456 320 stop;
#X obj 39 208 pre-reverb~ 10 10 10 10 10;
#X obj 40 184 expr~ $v1*0.77 + $v2*0.77;
#X obj 208 183 expr~ $v1*0.77 + $v2*0.77;
#X obj 34 418 dac~;
#X obj 255 417 writesf~ 2;
#X obj 207 207 pre-reverb~ 10 10 10 10 10;
#X floatatom 761 188 5 0 0 0 - - -;
#X msg 223 127 op_hat 50 \$1 100 100 8 0.001;
#X obj 122 -16 sel 122 120 99 118 114;
#X obj 509 13 bng 15 250 50 0 empty empty empty 17 7 0 10 -262144 -1
-1;
#X obj 771 61 moses 200;
#X obj 772 34 random 16000;
#X obj 669 67 moses 200;
#X msg 224 50 snare 100 109 15000 \$1 1;
#X floatatom 726 158 5 0 0 0 - - -;
#X obj 481 71 moses 200;
#X floatatom 509 93 5 0 0 0 - - -;
#X floatatom 541 117 5 0 0 0 - - -;
#X obj 482 44 random 16000;
#X obj 670 40 random 16000;
#X msg 224 72 kick \$1 1000 100 10 800 1;
#X obj 584 38 random 400;
#X obj 583 65 moses 100;
#X msg 224 96 cl_hat 10 \$1 20 10 800 1;
#X msg 334 283 open ./teste4.wav;
#X connect 0 0 3 0;
#X connect 1 0 3 1;
#X connect 2 0 3 2;
#X connect 3 0 13 0;
#X connect 3 1 14 0;
#X connect 3 2 14 1;
#X connect 3 3 13 1;
#X connect 4 0 5 0;
#X connect 5 0 20 0;
#X connect 9 0 3 3;
#X connect 10 0 16 0;
#X connect 11 0 16 0;
#X connect 12 0 15 0;
#X connect 12 0 16 0;
#X connect 12 1 15 0;
#X connect 12 1 16 0;
#X connect 13 0 12 0;
#X connect 14 0 17 0;
#X connect 17 0 15 1;
#X connect 17 0 16 1;
#X connect 17 1 15 1;
#X connect 17 1 16 1;
#X connect 18 0 19 0;
#X connect 19 0 3 4;
#X connect 20 0 0 0;
#X connect 20 1 1 0;
#X connect 20 2 2 0;
#X connect 20 3 9 0;
#X connect 20 4 21 0;
#X connect 21 0 23 0;
#X connect 21 0 31 0;
#X connect 21 0 30 0;
#X connect 21 0 33 0;
#X connect 22 1 18 0;
#X connect 23 0 22 0;
#X connect 24 1 26 0;
#X connect 25 0 3 4;
#X connect 26 0 35 0;
#X connect 27 1 28 0;
#X connect 28 0 25 0;
#X connect 29 0 32 0;
#X connect 30 0 27 0;
#X connect 31 0 24 0;
#X connect 32 0 3 4;
#X connect 33 0 34 0;
#X connect 34 1 29 0;
#X connect 35 0 3 4;
#X connect 36 0 16 0;
