#N canvas 176 69 932 614 10;
#X obj 184 182 unpack f f f f f f;
#X obj 329 184 unpack f f f f;
#X obj 47 184 unpack f f f f f;
#X obj 458 131 inlet;
#X obj 22 156 inlet;
#X obj 160 150 inlet;
#X obj 308 149 inlet;
#X obj 20 446 outlet~;
#X obj 22 211 ./snare~ 50 30 10 1000 1;
#X obj 168 260 ./kick~ 440 110 1 1 1 1 1;
#X obj 308 221 ./hat~ 1 1 1 1;
#X obj 460 231 unpack f f f f;
#X obj 439 196 inlet;
#X obj 439 268 ./hat~ 1 1 1 1;
#X obj 458 165 route snare kick cl_hat op_hat;
#X obj 85 376 hsl 128 15 0 1 0 0 empty empty empty -2 -8 0 10 -262144
-1 -1 4900 1;
#X obj 20 357 expr~ $v1*(1-$f3) + ($v2 * $f3) \;;
#X obj 20 311 ./pre-reverb~ 10 9 8 7 6;
#X obj 289 376 hsl 128 15 0 1 0 0 empty empty empty -2 -8 0 10 -262144
-1 -1 800 1;
#X obj 224 357 expr~ $v1*(1-$f3) + ($v2 * $f3) \;;
#X obj 224 311 ./pre-reverb~ 10 9 8 7 6;
#X obj 495 375 hsl 128 15 0 1 0 0 empty empty empty -2 -8 0 10 -262144
-1 -1 6500 1;
#X obj 430 356 expr~ $v1*(1-$f3) + ($v2 * $f3) \;;
#X obj 430 310 ./pre-reverb~ 10 9 8 7 6;
#X obj 701 373 hsl 128 15 0 1 0 0 empty empty empty -2 -8 0 10 -262144
-1 -1 12700 1;
#X obj 636 354 expr~ $v1*(1-$f3) + ($v2 * $f3) \;;
#X obj 636 308 ./pre-reverb~ 10 9 8 7 6;
#X obj 96 445 outlet~;
#X obj 180 444 outlet~;
#X obj 246 441 outlet~;
#X obj 651 465 sig~;
#X text 734 464 q;
#X obj 634 492 vcf~ 1;
#X text 683 491 optional argument to initialize q;
#X msg 653 435 1000;
#X msg 700 466 0.25;
#X connect 0 0 9 1;
#X connect 0 1 9 2;
#X connect 0 2 9 3;
#X connect 0 3 9 4;
#X connect 0 4 9 5;
#X connect 0 5 9 6;
#X connect 1 0 10 1;
#X connect 1 1 10 2;
#X connect 1 2 10 3;
#X connect 1 3 10 4;
#X connect 2 0 8 1;
#X connect 2 1 8 2;
#X connect 2 2 8 3;
#X connect 2 3 8 4;
#X connect 2 4 8 5;
#X connect 3 0 14 0;
#X connect 4 0 8 0;
#X connect 5 0 9 0;
#X connect 6 0 10 0;
#X connect 8 0 17 0;
#X connect 9 0 20 0;
#X connect 10 0 23 0;
#X connect 11 0 13 1;
#X connect 11 1 13 2;
#X connect 11 2 13 3;
#X connect 11 3 13 4;
#X connect 12 0 13 0;
#X connect 13 0 26 0;
#X connect 14 0 2 0;
#X connect 14 1 0 0;
#X connect 14 2 1 0;
#X connect 14 3 11 0;
#X connect 15 0 16 2;
#X connect 16 0 7 0;
#X connect 17 0 16 0;
#X connect 17 1 16 1;
#X connect 18 0 19 2;
#X connect 19 0 27 0;
#X connect 20 0 19 0;
#X connect 20 1 19 1;
#X connect 21 0 22 2;
#X connect 22 0 28 0;
#X connect 23 0 22 0;
#X connect 23 1 22 1;
#X connect 24 0 25 2;
#X connect 25 0 32 0;
#X connect 26 0 25 0;
#X connect 26 1 25 1;
#X connect 30 0 32 1;
#X connect 32 0 29 0;
#X connect 34 0 30 0;
#X connect 35 0 32 2;
