#N canvas 667 44 669 575 10;
#X obj 184 182 unpack f f f f f f;
#X obj 329 184 unpack f f f f;
#X obj 47 184 unpack f f f f f;
#X obj 458 165 route snare kick cl_hat;
#X obj 458 131 inlet;
#X obj 22 156 inlet;
#X obj 160 150 inlet;
#X obj 308 149 inlet;
#X obj 21 279 outlet~;
#X obj 22 211 ./snare~ 50 30 10 1000 1;
#X obj 168 260 ./kick~ 440 110 1 1 1 1 1;
#X obj 308 221 ./hat~ 1 1 1 1;
#X connect 0 0 10 1;
#X connect 0 1 10 2;
#X connect 0 2 10 3;
#X connect 0 3 10 4;
#X connect 0 4 10 5;
#X connect 0 5 10 6;
#X connect 1 0 11 1;
#X connect 1 1 11 2;
#X connect 1 2 11 3;
#X connect 1 3 11 4;
#X connect 2 0 9 1;
#X connect 2 1 9 2;
#X connect 2 2 9 3;
#X connect 2 3 9 4;
#X connect 2 4 9 5;
#X connect 3 0 2 0;
#X connect 3 1 0 0;
#X connect 3 2 1 0;
#X connect 4 0 3 0;
#X connect 5 0 9 0;
#X connect 6 0 10 0;
#X connect 7 0 11 0;
#X connect 9 0 8 0;
#X connect 10 0 8 0;
#X connect 11 0 8 0;
