#N canvas 194 260 669 575 10;
#X obj 184 182 unpack f f f f f f;
#X obj 329 184 unpack f f f f;
#X obj 47 184 unpack f f f f f;
#X obj 458 131 inlet;
#X obj 22 156 inlet;
#X obj 160 150 inlet;
#X obj 308 149 inlet;
#X obj 18 398 outlet~;
#X obj 22 211 ./snare~ 50 30 10 1000 1;
#X obj 168 260 ./kick~ 440 110 1 1 1 1 1;
#X obj 308 221 ./hat~ 1 1 1 1;
#N canvas 276 352 854 252 delay 1;
#X obj 10 10 inlet~;
#X obj 10 210 outlet~;
#X obj 90 80 *~ 0.71;
#X obj 10 45 delwrite~ \$0-delay_0 5;
#X obj 10 110 delread~ \$0-delay_0 5;
#X obj 170 45 delwrite~ \$0-delay_1 10;
#X obj 170 110 delread~ \$0-delay_1 10;
#X obj 330 45 delwrite~ \$0-delay_2 15;
#X obj 330 110 delread~ \$0-delay_2 15;
#X obj 230 80 *~ 0.71;
#X obj 370 80 *~ 0.71;
#X obj 518 80 *~ 0.71;
#X obj 670 80 *~ 0.71;
#X obj 478 45 delwrite~ \$0-delay_3 15;
#X obj 630 45 delwrite~ \$0-delay_4 15;
#X obj 478 110 delread~ \$0-delay_3 15;
#X obj 630 110 delread~ \$0-delay_4 15;
#X obj 10 147 +~;
#X obj 13 181 *~ 0.71;
#X connect 0 0 3 0;
#X connect 0 0 17 0;
#X connect 2 0 5 0;
#X connect 4 0 2 0;
#X connect 6 0 9 0;
#X connect 8 0 10 0;
#X connect 9 0 7 0;
#X connect 10 0 13 0;
#X connect 11 0 14 0;
#X connect 11 0 5 0;
#X connect 12 0 3 0;
#X connect 15 0 11 0;
#X connect 16 0 12 0;
#X connect 16 0 17 1;
#X connect 17 0 18 0;
#X connect 18 0 1 0;
#X restore 48 267 pd delay;
#X obj 460 231 unpack f f f f;
#X obj 439 196 inlet;
#X obj 439 268 ./hat~ 1 1 1 1;
#X obj 458 165 route snare kick cl_hat op_hat;
#X connect 0 0 9 1;
#X connect 0 1 9 2;
#X connect 0 2 9 3;
#X connect 0 3 9 4;
#X connect 0 4 9 5;
#X connect 0 5 9 6;
#X connect 1 0 10 1;
#X connect 1 1 10 2;
#X connect 1 2 10 3;
#X connect 1 3 10 4;
#X connect 2 0 8 1;
#X connect 2 1 8 2;
#X connect 2 2 8 3;
#X connect 2 3 8 4;
#X connect 2 4 8 5;
#X connect 3 0 15 0;
#X connect 4 0 8 0;
#X connect 5 0 9 0;
#X connect 6 0 10 0;
#X connect 8 0 11 0;
#X connect 9 0 7 0;
#X connect 10 0 7 0;
#X connect 11 0 7 0;
#X connect 12 0 14 1;
#X connect 12 1 14 2;
#X connect 12 2 14 3;
#X connect 12 3 14 4;
#X connect 13 0 14 0;
#X connect 14 0 7 0;
#X connect 15 0 2 0;
#X connect 15 1 0 0;
#X connect 15 2 1 0;
#X connect 15 3 12 0;
