#N canvas 763 251 462 312 10;
#X obj 25 28 inlet;
#X obj 95 23 inlet;
#X obj 174 39 inlet;
#X obj 311 32 inlet;
#X obj 3 128 noise~;
#X obj 44 146 *~;
#X obj 43 227 *~ 0;
#X floatatom 176 61 5 0 0 0 - - -;
#X obj 72 120 line;
#X obj 27 53 bng 15 250 50 0 empty empty empty 0 -6 0 8 -262144 -1
-1;
#X obj 41 260 outlet~;
#X floatatom 308 59 5 0 0 0 - - -;
#X floatatom 110 45 5 0 0 0 - - -;
#X msg 68 91 0;
#X msg 27 86 1;
#X obj 118 85 f;
#X obj 57 50 del 3;
#X obj 64 70 t b b;
#X obj 41 187 vcf~ 400;
#X obj 237 33 inlet;
#X floatatom 237 58 5 0 0 0 - - -;
#X obj 82 147 sig~;
#X text 17 9 trigger;
#X text 77 5 Amplitude Decay;
#X text 311 17 Volume (0..1);
#X text 166 22 BPF freq;
#X text 235 15 BPF q;
#X obj 410 81 \$1;
#X obj 412 34 loadbang;
#X obj 438 81 \$2;
#X obj 468 79 \$3;
#X obj 498 80 \$4;
#X text 208 206 http://puredata.info/Members/junkhat/;
#X connect 0 0 9 0;
#X connect 1 0 12 0;
#X connect 2 0 7 0;
#X connect 3 0 6 1;
#X connect 3 0 11 0;
#X connect 4 0 5 0;
#X connect 5 0 18 0;
#X connect 6 0 10 0;
#X connect 7 0 21 0;
#X connect 8 0 5 1;
#X connect 9 0 14 0;
#X connect 9 0 16 0;
#X connect 12 0 15 1;
#X connect 13 0 8 0;
#X connect 14 0 8 0;
#X connect 15 0 8 1;
#X connect 16 0 17 0;
#X connect 17 0 13 0;
#X connect 17 1 15 0;
#X connect 18 0 6 0;
#X connect 19 0 20 0;
#X connect 20 0 18 2;
#X connect 21 0 18 1;
#X connect 27 0 12 0;
#X connect 28 0 31 0;
#X connect 28 0 30 0;
#X connect 28 0 29 0;
#X connect 28 0 27 0;
#X connect 29 0 7 0;
#X connect 30 0 20 0;
#X connect 31 0 11 0;
