#N canvas 641 407 450 300 10;
#X obj 27 5 key;
#X floatatom 24 35 5 0 0 0 - - -;
#X obj 75 60 outlet;
#X obj 118 60 outlet;
#X obj 161 60 outlet;
#X obj 204 60 outlet;
#X obj 251 60 outlet;
#X obj 81 25 sel \$1 \$2 \$3 \$4 \$5;
#X connect 0 0 1 0;
#X connect 1 0 7 0;
#X connect 7 0 2 0;
#X connect 7 1 3 0;
#X connect 7 2 4 0;
#X connect 7 3 5 0;
#X connect 7 4 6 0;
