#N canvas 478 134 702 520 10;
#X obj 26 272 *~;
#X obj 117 310 *~ 0;
#X obj -13 244 osc~;
#X obj -44 89 inlet;
#X obj 6 62 inlet;
#X msg 36 208 0.25;
#X obj -31 151 f;
#X obj -44 113 bng 15 250 50 0 empty empty empty 0 -6 0 8 -262144 -1
-1;
#X floatatom 8 84 5 0 0 0 - - -;
#X obj 59 85 inlet;
#X floatatom 61 107 5 0 0 0 - - -;
#X floatatom 115 82 5 0 0 0 - - -;
#X obj 113 57 inlet;
#X floatatom 170 95 5 0 0 0 - - -;
#X obj 170 70 inlet;
#X floatatom 226 110 5 0 0 0 - - -;
#X obj 226 85 inlet;
#X floatatom 278 109 5 0 0 0 - - -;
#X obj 278 84 inlet;
#X obj 47 301 lop~;
#X msg 208 199 0;
#X msg 167 194 1;
#X obj 258 193 f;
#X obj 197 158 del 3;
#X obj 204 178 t b b;
#X obj 81 173 f;
#X obj 20 138 del 3;
#X obj 27 158 t b b;
#X obj 29 181 f;
#X obj 115 349 outlet~;
#X obj 159 234 line~;
#X obj -13 206 line~;
#X text -50 72 Trigger;
#X text -2 32 Start Frequency;
#X text 48 60 End Frequency;
#X text 112 24 Frequency Decay;
#X text 171 41 Amplitude Decay;
#X text 226 57 LPF cutoff;
#X text 278 53 Volume (0..1);
#X text 259 264 http://puredata.info/Members/Junk/drumsynthesis/?searchterm=drum
;
#X obj 390 61 \$1;
#X obj 392 14 loadbang;
#X obj 418 61 \$2;
#X obj 448 59 \$3;
#X obj 478 60 \$4;
#X obj 509 60 \$5;
#X obj 541 61 \$6;
#X obj 572 60 \$7;
#X connect 0 0 19 0;
#X connect 1 0 29 0;
#X connect 2 0 0 0;
#X connect 3 0 7 0;
#X connect 4 0 8 0;
#X connect 5 0 2 1;
#X connect 6 0 31 0;
#X connect 7 0 21 0;
#X connect 7 0 6 0;
#X connect 7 0 5 0;
#X connect 7 0 26 0;
#X connect 7 0 23 0;
#X connect 8 0 6 1;
#X connect 9 0 10 0;
#X connect 10 0 28 1;
#X connect 11 0 25 1;
#X connect 12 0 11 0;
#X connect 13 0 22 1;
#X connect 14 0 13 0;
#X connect 15 0 19 1;
#X connect 16 0 15 0;
#X connect 17 0 1 1;
#X connect 18 0 17 0;
#X connect 19 0 1 0;
#X connect 20 0 30 0;
#X connect 21 0 30 0;
#X connect 22 0 30 1;
#X connect 23 0 24 0;
#X connect 24 0 20 0;
#X connect 24 1 22 0;
#X connect 25 0 31 1;
#X connect 26 0 27 0;
#X connect 27 0 28 0;
#X connect 27 1 25 0;
#X connect 28 0 31 0;
#X connect 30 0 0 1;
#X connect 31 0 2 0;
#X connect 40 0 8 0;
#X connect 41 0 47 0;
#X connect 41 0 46 0;
#X connect 41 0 45 0;
#X connect 41 0 44 0;
#X connect 41 0 43 0;
#X connect 41 0 42 0;
#X connect 41 0 40 0;
#X connect 42 0 10 0;
#X connect 44 0 11 0;
#X connect 45 0 13 0;
#X connect 46 0 15 0;
#X connect 47 0 17 0;
