#N canvas 0 22 811 458 10;
#X obj 20 20 inlet~;
#X obj 75 226 outlet~;
#X obj 100 90 *~ 0.71;
#X obj 240 90 *~ 0.71;
#X obj 380 90 *~ 0.71;
#X obj 215 195 *~ 0.71;
#X obj 367 195 *~ 0.71;
#X obj 18 227 outlet~;
#X obj 20 55 delwrite~ \$0-delay_0 \$1;
#X obj 20 120 delread~ \$0-delay_0 \$1;
#X obj 180 55 delwrite~ \$0-delay_1 \$2;
#X obj 180 120 delread~ \$0-delay_1 \$2;
#X obj 340 55 delwrite~ \$0-delay_2 \$3;
#X obj 340 120 delread~ \$0-delay_2 \$3;
#X obj 175 160 delwrite~ \$0-delay_3 \$4;
#X obj 175 225 delread~ \$0-delay_3 \$4;
#X obj 327 160 delwrite~ \$0-delay_4 \$5;
#X obj 327 225 delread~ \$0-delay_4 \$5;
#X connect 0 0 7 0;
#X connect 0 0 8 0;
#X connect 2 0 10 0;
#X connect 3 0 12 0;
#X connect 4 0 14 0;
#X connect 5 0 16 0;
#X connect 6 0 8 0;
#X connect 9 0 2 0;
#X connect 11 0 3 0;
#X connect 13 0 4 0;
#X connect 13 0 1 0;
#X connect 15 0 5 0;
#X connect 17 0 6 0;
