#N canvas 355 129 562 438 10;
#X obj 25 28 inlet;
#X obj 111 26 inlet;
#X obj 298 40 inlet;
#X obj 438 76 inlet;
#X obj 3 128 noise~;
#X obj 28 161 *~;
#X obj 40 283 *~ 0;
#X floatatom 286 81 5 0 0 0 - - -;
#X obj 72 120 line;
#X obj 27 53 bng 15 250 50 0 empty empty empty 0 -6 0 8 -262144 -1
-1;
#X obj 38 316 outlet~;
#X floatatom 435 103 5 0 0 0 - - -;
#X floatatom 126 48 5 0 0 0 - - -;
#X msg 68 91 0;
#X msg 27 86 1;
#X obj 118 85 f;
#X obj 57 50 del 3;
#X obj 64 70 t b b;
#X obj 38 243 lop~ 400;
#X obj 163 174 *;
#X obj 226 27 inlet;
#X obj 196 128 line;
#X floatatom 241 49 5 0 0 0 - - -;
#X msg 192 99 0;
#X msg 151 94 1;
#X obj 242 93 f;
#X obj 181 58 del 3;
#X obj 188 78 t b b;
#X obj 361 58 inlet;
#X floatatom 349 99 5 0 0 0 - - -;
#X obj 145 203 +;
#X text 17 9 trigger;
#X text 91 10 Amplitude Decay;
#X text 215 11 Filter Decay;
#X text 283 23 Filter EG Amount;
#X text 360 44 LPF Cutoff;
#X text 432 58 Volume (0..1);
#X obj 338 208 \$1;
#X obj 340 161 loadbang;
#X obj 366 208 \$2;
#X obj 396 206 \$3;
#X obj 426 207 \$4;
#X obj 458 209 \$4;
#X connect 0 0 9 0;
#X connect 1 0 12 0;
#X connect 2 0 7 0;
#X connect 3 0 6 1;
#X connect 3 0 11 0;
#X connect 4 0 5 0;
#X connect 5 0 18 0;
#X connect 6 0 10 0;
#X connect 7 0 19 1;
#X connect 8 0 5 1;
#X connect 9 0 14 0;
#X connect 9 0 16 0;
#X connect 9 0 24 0;
#X connect 9 0 26 0;
#X connect 12 0 15 1;
#X connect 13 0 8 0;
#X connect 14 0 8 0;
#X connect 15 0 8 1;
#X connect 16 0 17 0;
#X connect 17 0 13 0;
#X connect 17 1 15 0;
#X connect 18 0 6 0;
#X connect 19 0 30 0;
#X connect 20 0 22 0;
#X connect 21 0 19 0;
#X connect 22 0 25 1;
#X connect 23 0 21 0;
#X connect 24 0 21 0;
#X connect 25 0 21 1;
#X connect 26 0 27 0;
#X connect 27 0 23 0;
#X connect 27 1 25 0;
#X connect 28 0 29 0;
#X connect 29 0 30 1;
#X connect 30 0 18 1;
#X connect 37 0 12 0;
#X connect 38 0 41 0;
#X connect 38 0 40 0;
#X connect 38 0 39 0;
#X connect 38 0 37 0;
#X connect 38 0 42 0;
#X connect 39 0 22 0;
#X connect 40 0 7 0;
#X connect 41 0 29 0;
#X connect 42 0 11 0;
